<svg xmlns="http://www.w3.org/2000/svg" xmlns:xlink="http://www.w3.org/1999/xlink" preserveAspectRatio="xMidYMid meet" width="300" height="300" viewBox="0 0 300 300" style="width:100%;height:100%"><defs><animateTransform repeatCount="indefinite" dur="1s" begin="0s" xlink:href="#_R_G_L_4_G" fill="freeze" attributeName="transform" from="0.32 0.32" to="1 1" type="scale" additive="sum" keyTimes="0;0.2916667;1" values="0.32 0.32;1 1;1 1" keySplines="0.167 0.167 0.833 0.833;0 0 0 0" calcMode="spline"/><animateTransform repeatCount="indefinite" dur="1s" begin="0s" xlink:href="#_R_G_L_4_G" fill="freeze" attributeName="transform" from="-150 -150" to="-150 -150" type="translate" additive="sum" keyTimes="0;1" values="-150 -150;-150 -150" keySplines="0 0 1 1" calcMode="spline"/><animateTransform repeatCount="indefinite" dur="1s" begin="0s" xlink:href="#_R_G_L_2_G" fill="freeze" attributeName="transform" from="27" to="0" type="rotate" additive="sum" keyTimes="0;0.2916667;1" values="27;0;0" keySplines="0.167 0.167 0.833 0.833;0 0 0 0" calcMode="spline"/><animateTransform repeatCount="indefinite" dur="1s" begin="0s" xlink:href="#_R_G_L_2_G" fill="freeze" attributeName="transform" from="-45 -117" to="-45 -117" type="translate" additive="sum" keyTimes="0;1" values="-45 -117;-45 -117" keySplines="0 0 1 1" calcMode="spline"/><animate repeatCount="indefinite" dur="1s" begin="0s" xlink:href="#_R_G_L_1_G" fill="freeze" attributeName="opacity" from="0" to="1" keyTimes="0;0.3333333;0.375;1" values="0;0;1;1" keySplines="0.167 0.167 0.833 0.833;0.167 0.167 0.833 0.833;0 0 0 0" calcMode="spline"/><animate repeatCount="indefinite" dur="1s" begin="0s" xlink:href="#_R_G_L_0_G" fill="freeze" attributeName="opacity" from="0" to="1" keyTimes="0;0.2916667;0.3333333;1" values="0;0;1;1" keySplines="0.167 0.167 0.833 0.833;0.167 0.167 0.833 0.833;0 0 0 0" calcMode="spline"/><animate attributeType="XML" attributeName="opacity" dur="1s" from="0" to="1" xlink:href="#time_group"/></defs><g id="_R_G"><g id="_R_G_L_4_G" transform=" translate(150, 150)"><path id="_R_G_L_4_G_D_0_P_0" fill="#ffffff" fill-opacity="1" fill-rule="nonzero" d=" M209.18 124.74 C191.07,124.74 176.34,110.01 176.34,91.9 C176.34,73.79 191.07,59.06 209.18,59.06 C227.29,59.06 242.02,73.79 242.02,91.9 C242.02,110.01 227.29,124.74 209.18,124.74z "/><path id="_R_G_L_4_G_D_1_P_0" fill="#343434" fill-opacity="1" fill-rule="nonzero" d=" M209.18 59.56 C227.01,59.56 241.52,74.07 241.52,91.9 C241.52,109.73 227.01,124.24 209.18,124.24 C191.35,124.24 176.84,109.73 176.84,91.9 C176.84,74.07 191.35,59.56 209.18,59.56z  M209.18 58.56 C190.77,58.56 175.84,73.49 175.84,91.9 C175.84,110.31 190.77,125.24 209.18,125.24 C227.59,125.24 242.52,110.31 242.52,91.9 C242.52,73.49 227.59,58.56 209.18,58.56z "/></g><g id="_R_G_L_3_G"><path id="_R_G_L_3_G_D_0_P_0" fill="#fbd1d8" fill-opacity="1" fill-rule="nonzero" d=" M176.63 267.06 C176.63,267.06 54.95,267.06 54.95,267.06 C48.9,267.06 44,262.16 44,256.12 C44,256.12 44,135.27 44,135.27 C44,129.22 48.9,124.32 54.95,124.32 C54.95,124.32 176.63,124.32 176.63,124.32 C182.67,124.32 187.58,129.22 187.58,135.27 C187.58,135.27 187.58,256.12 187.58,256.12 C187.58,262.16 182.67,267.06 176.63,267.06z "/><path id="_R_G_L_3_G_D_1_P_0" stroke="#343434" stroke-linecap="round" stroke-linejoin="round" fill="none" stroke-width="1" stroke-opacity="1" d=" M176.63 267.06 C176.63,267.06 54.95,267.06 54.95,267.06 C48.9,267.06 44,262.16 44,256.12 C44,256.12 44,135.27 44,135.27 C44,129.22 48.9,124.32 54.95,124.32 C54.95,124.32 176.63,124.32 176.63,124.32 C182.67,124.32 187.58,129.22 187.58,135.27 C187.58,135.27 187.58,256.12 187.58,256.12 C187.58,262.16 182.67,267.06 176.63,267.06z "/><path id="_R_G_L_3_G_D_2_P_0" fill="#f393a4" fill-opacity="1" fill-rule="nonzero" d=" M182.6 214.05 C182.6,214.05 48.87,214.05 48.87,214.05 C46.07,214.05 43.8,211.78 43.8,208.98 C43.8,208.98 43.8,187.32 43.8,187.32 C43.8,184.52 46.07,182.25 48.87,182.25 C48.87,182.25 182.6,182.25 182.6,182.25 C185.41,182.25 187.68,184.52 187.68,187.32 C187.68,187.32 187.68,208.98 187.68,208.98 C187.68,211.78 185.41,214.05 182.6,214.05z "/><path id="_R_G_L_3_G_D_3_P_0" stroke="#343434" stroke-linecap="round" stroke-linejoin="round" fill="none" stroke-width="1" stroke-opacity="1" d=" M182.6 214.05 C182.6,214.05 48.87,214.05 48.87,214.05 C46.07,214.05 43.8,211.78 43.8,208.98 C43.8,208.98 43.8,187.32 43.8,187.32 C43.8,184.52 46.07,182.25 48.87,182.25 C48.87,182.25 182.6,182.25 182.6,182.25 C185.41,182.25 187.68,184.52 187.68,187.32 C187.68,187.32 187.68,208.98 187.68,208.98 C187.68,211.78 185.41,214.05 182.6,214.05z "/><path id="_R_G_L_3_G_D_4_P_0" fill="#f393a4" fill-opacity="1" fill-rule="nonzero" d=" M130.78 267.06 C130.78,267.06 100.79,267.06 100.79,267.06 C98.62,267.06 96.85,265.3 96.85,263.13 C96.85,263.13 96.85,128.63 96.85,128.63 C96.85,126.46 98.62,124.7 100.79,124.7 C100.79,124.7 130.78,124.7 130.78,124.7 C132.96,124.7 134.72,126.46 134.72,128.63 C134.72,128.63 134.72,263.13 134.72,263.13 C134.72,265.3 132.96,267.06 130.78,267.06z "/><path id="_R_G_L_3_G_D_5_P_0" stroke="#343434" stroke-linecap="round" stroke-linejoin="round" fill="none" stroke-width="1" stroke-opacity="1" d=" M130.78 267.06 C130.78,267.06 100.79,267.06 100.79,267.06 C98.62,267.06 96.85,265.3 96.85,263.13 C96.85,263.13 96.85,128.63 96.85,128.63 C96.85,126.46 98.62,124.7 100.79,124.7 C100.79,124.7 130.78,124.7 130.78,124.7 C132.96,124.7 134.72,126.46 134.72,128.63 C134.72,128.63 134.72,263.13 134.72,263.13 C134.72,265.3 132.96,267.06 130.78,267.06z "/></g><g id="_R_G_L_2_G" transform=" translate(45, 117)"><path id="_R_G_L_2_G_D_0_P_0" fill="#f393a4" fill-opacity="1" fill-rule="nonzero" d=" M77.2 101.27 C77.2,101.27 62.26,99.45 62.26,99.45 C51.45,98.12 43.76,88.29 45.09,77.49 C46.41,66.68 56.24,59 67.04,60.32 C67.04,60.32 81.99,62.15 81.99,62.15 C92.79,63.47 100.48,73.3 99.16,84.1 C97.83,94.91 88,102.6 77.2,101.27z "/><path id="_R_G_L_2_G_D_1_P_0" stroke="#343434" stroke-linecap="round" stroke-linejoin="round" fill="none" stroke-width="1" stroke-opacity="1" d=" M77.2 101.27 C77.2,101.27 62.26,99.45 62.26,99.45 C51.45,98.12 43.76,88.29 45.09,77.49 C46.41,66.68 56.24,59 67.04,60.32 C67.04,60.32 81.99,62.15 81.99,62.15 C92.79,63.47 100.48,73.3 99.16,84.1 C97.83,94.91 88,102.6 77.2,101.27z "/><path id="_R_G_L_2_G_D_2_P_0" fill="#f393a4" fill-opacity="1" fill-rule="nonzero" d=" M136.8 70.36 C136.8,70.36 143.92,57.09 143.92,57.09 C149.06,47.5 145.45,35.55 135.86,30.41 C126.26,25.26 114.32,28.87 109.17,38.47 C109.17,38.47 102.06,51.73 102.06,51.73 C96.92,61.33 100.53,73.27 110.12,78.42 C119.71,83.56 131.66,79.95 136.8,70.36z "/><path id="_R_G_L_2_G_D_3_P_0" stroke="#343434" stroke-linecap="round" stroke-linejoin="round" fill="none" stroke-width="1" stroke-opacity="1" d=" M136.8 70.36 C136.8,70.36 143.92,57.09 143.92,57.09 C149.06,47.5 145.45,35.55 135.86,30.41 C126.26,25.26 114.32,28.87 109.17,38.47 C109.17,38.47 102.06,51.73 102.06,51.73 C96.92,61.33 100.53,73.27 110.12,78.42 C119.71,83.56 131.66,79.95 136.8,70.36z "/><path id="_R_G_L_2_G_D_4_P_0" fill="#f4bec7" fill-opacity="1" fill-rule="nonzero" d=" M170.82 66.87 C170.82,66.87 52.04,128.47 52.04,128.47 C46.68,131.26 40.07,129.16 37.28,123.79 C37.28,123.79 32.72,115 32.72,115 C29.94,109.63 32.03,103.02 37.4,100.24 C37.4,100.24 156.17,38.64 156.17,38.64 C161.54,35.85 168.15,37.94 170.93,43.31 C170.93,43.31 175.5,52.11 175.5,52.11 C178.28,57.48 176.18,64.08 170.82,66.87z "/><path id="_R_G_L_2_G_D_5_P_0" stroke="#343434" stroke-linecap="round" stroke-linejoin="round" fill="none" stroke-width="1" stroke-opacity="1" d=" M170.82 66.87 C170.82,66.87 52.04,128.47 52.04,128.47 C46.68,131.26 40.07,129.16 37.28,123.79 C37.28,123.79 32.72,115 32.72,115 C29.94,109.63 32.03,103.02 37.4,100.24 C37.4,100.24 156.17,38.64 156.17,38.64 C161.54,35.85 168.15,37.94 170.93,43.31 C170.93,43.31 175.5,52.11 175.5,52.11 C178.28,57.48 176.18,64.08 170.82,66.87z "/><path id="_R_G_L_2_G_D_6_P_0" fill="#f393a4" fill-opacity="1" fill-rule="nonzero" d=" M121.23 92.64 C121.23,92.64 101.67,102.78 101.67,102.78 C96.31,105.56 89.7,103.47 86.92,98.1 C86.92,98.1 82.31,89.23 82.31,89.23 C79.53,83.86 81.62,77.25 86.99,74.47 C86.99,74.47 106.54,64.33 106.54,64.33 C111.91,61.54 118.52,63.64 121.3,69.01 C121.3,69.01 125.9,77.88 125.9,77.88 C128.69,83.25 126.59,89.85 121.23,92.64z "/><path id="_R_G_L_2_G_D_7_P_0" stroke="#343434" stroke-linecap="round" stroke-linejoin="round" fill="none" stroke-width="1" stroke-opacity="1" d=" M121.23 92.64 C121.23,92.64 101.67,102.78 101.67,102.78 C96.31,105.56 89.7,103.47 86.92,98.1 C86.92,98.1 82.31,89.23 82.31,89.23 C79.53,83.86 81.62,77.25 86.99,74.47 C86.99,74.47 106.54,64.33 106.54,64.33 C111.91,61.54 118.52,63.64 121.3,69.01 C121.3,69.01 125.9,77.88 125.9,77.88 C128.69,83.25 126.59,89.85 121.23,92.64z "/></g><g id="_R_G_L_1_G"><path id="_R_G_L_1_G_D_0_P_0" fill="#a3a3a3" fill-opacity="1" fill-rule="nonzero" d=" M212.99 147.97 C212.99,147.97 211.38,137.4 211.38,137.4 C210.98,134.82 212.75,132.41 215.33,132.02 C217.91,131.62 220.32,133.4 220.71,135.98 C220.71,135.98 222.32,146.55 222.32,146.55 C222.71,149.13 220.94,151.54 218.36,151.92 C215.78,152.32 213.38,150.55 212.99,147.97z "/><path id="_R_G_L_1_G_D_1_P_0" fill="#a3a3a3" fill-opacity="1" fill-rule="nonzero" d=" M176.39 137.6 C176.39,137.6 181.85,128.4 181.85,128.4 C183.18,126.16 186.08,125.42 188.32,126.75 C190.56,128.08 191.3,130.98 189.97,133.22 C189.97,133.22 184.5,142.42 184.5,142.42 C183.17,144.66 180.27,145.4 178.04,144.07 C175.79,142.74 175.05,139.84 176.39,137.6z "/><path id="_R_G_L_1_G_D_2_P_0" fill="#a3a3a3" fill-opacity="1" fill-rule="nonzero" d=" M154.68 106.36 C154.68,106.36 164.74,102.72 164.74,102.72 C167.19,101.83 169.9,103.1 170.79,105.55 C171.68,108 170.41,110.71 167.95,111.6 C167.95,111.6 157.9,115.24 157.9,115.24 C155.44,116.13 152.74,114.86 151.85,112.4 C150.96,109.95 152.23,107.25 154.68,106.36z "/><path id="_R_G_L_1_G_D_3_P_0" fill="#a3a3a3" fill-opacity="1" fill-rule="nonzero" d=" M157.71 68.44 C157.71,68.44 167.8,72.01 167.8,72.01 C170.26,72.88 171.55,75.57 170.68,78.03 C169.81,80.49 167.11,81.78 164.65,80.91 C164.65,80.91 154.57,77.35 154.57,77.35 C152.11,76.47 150.82,73.78 151.69,71.32 C152.56,68.86 155.26,67.57 157.71,68.44z "/><path id="_R_G_L_1_G_D_4_P_0" fill="#a3a3a3" fill-opacity="1" fill-rule="nonzero" d=" M184.11 41.06 C184.11,41.06 189.65,50.22 189.65,50.22 C191,52.45 190.28,55.35 188.06,56.7 C185.83,58.05 182.92,57.33 181.57,55.1 C181.57,55.1 176.04,45.94 176.04,45.94 C174.69,43.72 175.4,40.81 177.64,39.47 C179.87,38.12 182.77,38.83 184.11,41.06z "/><path id="_R_G_L_1_G_D_5_P_0" fill="#a3a3a3" fill-opacity="1" fill-rule="nonzero" d=" M221.9 36.64 C221.9,36.64 220.37,47.23 220.37,47.23 C219.99,49.81 217.6,51.6 215.02,51.23 C212.44,50.85 210.65,48.46 211.02,45.88 C211.02,45.88 212.55,35.29 212.55,35.29 C212.93,32.71 215.32,30.92 217.9,31.3 C220.48,31.67 222.27,34.06 221.9,36.64z "/><path id="_R_G_L_1_G_D_6_P_0" fill="#a3a3a3" fill-opacity="1" fill-rule="nonzero" d=" M253.91 57.19 C253.91,57.19 246.01,64.41 246.01,64.41 C244.09,66.16 241.1,66.03 239.34,64.1 C237.58,62.18 237.72,59.19 239.64,57.43 C239.64,57.43 247.54,50.22 247.54,50.22 C249.46,48.46 252.45,48.6 254.21,50.52 C255.97,52.45 255.83,55.43 253.91,57.19z "/><path id="_R_G_L_1_G_D_7_P_0" fill="#a3a3a3" fill-opacity="1" fill-rule="nonzero" d=" M265.61 93.38 C265.61,93.38 254.93,93.95 254.93,93.95 C252.33,94.09 250.11,92.09 249.97,89.49 C249.83,86.88 251.83,84.66 254.43,84.52 C254.43,84.52 265.12,83.96 265.12,83.96 C267.72,83.82 269.94,85.82 270.08,88.42 C270.21,91.02 268.22,93.25 265.61,93.38z "/><path id="_R_G_L_1_G_D_8_P_0" fill="#a3a3a3" fill-opacity="1" fill-rule="nonzero" d=" M251.7 128.79 C251.7,128.79 243.09,122.45 243.09,122.45 C240.99,120.9 240.53,117.95 242.08,115.85 C243.62,113.75 246.58,113.3 248.68,114.84 C248.68,114.84 257.3,121.18 257.3,121.18 C259.39,122.73 259.85,125.68 258.3,127.78 C256.75,129.88 253.8,130.33 251.7,128.79z "/></g><g id="_R_G_L_0_G"><path id="_R_G_L_0_G_D_0_P_0" fill="#f6a2b1" fill-opacity="1" fill-rule="nonzero" d=" M221.86 76.99 C217.99,74.76 213.05,76.09 210.81,79.95 C210.81,79.95 207.87,85.05 207.87,85.05 C207.87,85.05 204.68,80.11 204.68,80.11 C202.26,76.36 197.25,75.29 193.5,77.71 C189.75,80.13 188.68,85.14 191.1,88.89 C191.1,88.89 200.54,103.5 200.54,103.5 C201.16,105.24 202.35,106.79 204.08,107.79 C205.29,108.5 206.62,108.81 207.93,108.84 C208.13,108.85 208.34,108.86 208.54,108.85 C208.64,108.85 208.74,108.84 208.83,108.83 C210.2,108.76 211.57,108.38 212.8,107.58 C214.49,106.49 215.6,104.87 216.13,103.08 C216.13,103.08 224.82,88.04 224.82,88.04 C227.05,84.17 225.72,79.22 221.86,76.99z "/><path id="_R_G_L_0_G_D_1_P_0" stroke="#343434" stroke-linecap="round" stroke-linejoin="round" fill="none" stroke-width="1" stroke-opacity="1" d=" M221.86 76.99 C217.99,74.76 213.05,76.09 210.81,79.95 C210.81,79.95 207.87,85.05 207.87,85.05 C207.87,85.05 204.68,80.11 204.68,80.11 C202.26,76.36 197.25,75.29 193.5,77.71 C189.75,80.13 188.68,85.14 191.1,88.89 C191.1,88.89 200.54,103.5 200.54,103.5 C201.16,105.24 202.35,106.79 204.08,107.79 C205.29,108.5 206.62,108.81 207.93,108.84 C208.13,108.85 208.34,108.86 208.54,108.85 C208.64,108.85 208.74,108.84 208.83,108.83 C210.2,108.76 211.57,108.38 212.8,107.58 C214.49,106.49 215.6,104.87 216.13,103.08 C216.13,103.08 224.82,88.04 224.82,88.04 C227.05,84.17 225.72,79.22 221.86,76.99z "/></g></g><g id="time_group"/></svg>