<svg xmlns="http://www.w3.org/2000/svg" xmlns:xlink="http://www.w3.org/1999/xlink" preserveAspectRatio="xMidYMid meet" width="300" height="300" viewBox="0 0 300 300" style="width:100%;height:100%"><defs><animateTransform repeatCount="indefinite" dur="1s" begin="0s" xlink:href="#_R_G_L_2_G" fill="freeze" attributeName="transform" from="0" to="0" type="rotate" additive="sum" keyTimes="0;0.1666667;0.25;1" values="0;7.263;0;0" keySplines="0.167 0.167 0.117 0.879;0.167 0.167 0.833 0.833;0 0 0 0" calcMode="spline"/><animateTransform repeatCount="indefinite" dur="1s" begin="0s" xlink:href="#_R_G_L_2_G" fill="freeze" attributeName="transform" from="-150 -150" to="-150 -150" type="translate" additive="sum" keyTimes="0;1" values="-150 -150;-150 -150" keySplines="0 0 1 1" calcMode="spline"/><animate repeatCount="indefinite" dur="1s" begin="0s" xlink:href="#_R_G_L_1_G_D_2_P_0" fill="freeze" attributeName="fill" from="#373535" to="#373535" keyTimes="0;0.25;1" values="#373535;#f6a2b1;#f6a2b1" keySplines="0.167 0.167 0.833 0.833;0 0 0 0" calcMode="spline"/><animateTransform repeatCount="indefinite" dur="1s" begin="0s" xlink:href="#_R_G_L_1_G" fill="freeze" attributeName="transform" from="0.79 0.79" to="1 1" type="scale" additive="sum" keyTimes="0;0.1666667;1" values="0.79 0.79;1 1;1 1" keySplines="0.167 0.167 0.833 0.833;0 0 0 0" calcMode="spline"/><animateTransform repeatCount="indefinite" dur="1s" begin="0s" xlink:href="#_R_G_L_1_G" fill="freeze" attributeName="transform" from="-150 -150" to="-150 -150" type="translate" additive="sum" keyTimes="0;1" values="-150 -150;-150 -150" keySplines="0 0 1 1" calcMode="spline"/><animate repeatCount="indefinite" dur="1s" begin="0s" xlink:href="#_R_G_L_0_G" fill="freeze" attributeName="opacity" from="0" to="1" keyTimes="0;0.1666667;0.2916667;1" values="0;0;1;1" keySplines="0.167 0.167 0.833 0.833;0.167 0.167 0.833 0.833;0 0 0 0" calcMode="spline"/><animate attributeType="XML" attributeName="opacity" dur="1s" from="0" to="1" xlink:href="#time_group"/></defs><g id="_R_G"><g id="_R_G_L_3_G"><path id="_R_G_L_3_G_D_0_P_0" fill="#fbd1d8" fill-opacity="1" fill-rule="nonzero" d=" M182.19 265.21 C182.19,265.21 55.9,265.21 55.9,265.21 C49.62,265.21 44.53,260.12 44.53,253.85 C44.53,253.85 44.53,128.42 44.53,128.42 C44.53,122.14 49.62,117.06 55.9,117.06 C55.9,117.06 182.19,117.06 182.19,117.06 C188.46,117.06 193.55,122.14 193.55,128.42 C193.55,128.42 193.55,253.85 193.55,253.85 C193.55,260.12 188.46,265.21 182.19,265.21z "/><path id="_R_G_L_3_G_D_1_P_0" stroke="#343434" stroke-linecap="round" stroke-linejoin="round" fill="none" stroke-width="1" stroke-opacity="1" d=" M182.19 265.21 C182.19,265.21 55.9,265.21 55.9,265.21 C49.62,265.21 44.53,260.12 44.53,253.85 C44.53,253.85 44.53,128.42 44.53,128.42 C44.53,122.14 49.62,117.06 55.9,117.06 C55.9,117.06 182.19,117.06 182.19,117.06 C188.46,117.06 193.55,122.14 193.55,128.42 C193.55,128.42 193.55,253.85 193.55,253.85 C193.55,260.12 188.46,265.21 182.19,265.21z "/><path id="_R_G_L_3_G_D_2_P_0" fill="#f393a4" fill-opacity="1" fill-rule="nonzero" d=" M188.39 211.76 C188.39,211.76 49.59,211.76 49.59,211.76 C46.68,211.76 44.32,209.41 44.32,206.5 C44.32,206.5 44.32,184.02 44.32,184.02 C44.32,181.11 46.68,178.75 49.59,178.75 C49.59,178.75 188.39,178.75 188.39,178.75 C191.3,178.75 193.66,181.11 193.66,184.02 C193.66,184.02 193.66,206.5 193.66,206.5 C193.66,209.41 191.3,211.76 188.39,211.76z "/><path id="_R_G_L_3_G_D_3_P_0" stroke="#343434" stroke-linecap="round" stroke-linejoin="round" fill="none" stroke-width="1" stroke-opacity="1" d=" M188.39 211.76 C188.39,211.76 49.59,211.76 49.59,211.76 C46.68,211.76 44.32,209.41 44.32,206.5 C44.32,206.5 44.32,184.02 44.32,184.02 C44.32,181.11 46.68,178.75 49.59,178.75 C49.59,178.75 188.39,178.75 188.39,178.75 C191.3,178.75 193.66,181.11 193.66,184.02 C193.66,184.02 193.66,206.5 193.66,206.5 C193.66,209.41 191.3,211.76 188.39,211.76z "/><path id="_R_G_L_3_G_D_4_P_0" fill="#f393a4" fill-opacity="1" fill-rule="nonzero" d=" M134.34 265.21 C134.34,265.21 103.75,265.21 103.75,265.21 C101.34,265.21 99.39,263.26 99.39,260.85 C99.39,260.85 99.39,121.35 99.39,121.35 C99.39,118.94 101.34,117 103.75,117 C103.75,117 134.34,117 134.34,117 C136.74,117 138.69,118.94 138.69,121.35 C138.69,121.35 138.69,260.85 138.69,260.85 C138.69,263.26 136.74,265.21 134.34,265.21z "/><path id="_R_G_L_3_G_D_5_P_0" stroke="#343434" stroke-linecap="round" stroke-linejoin="round" fill="none" stroke-width="1" stroke-opacity="1" d=" M134.34 265.21 C134.34,265.21 103.75,265.21 103.75,265.21 C101.34,265.21 99.39,263.26 99.39,260.85 C99.39,260.85 99.39,121.35 99.39,121.35 C99.39,118.94 101.34,117 103.75,117 C103.75,117 134.34,117 134.34,117 C136.74,117 138.69,118.94 138.69,121.35 C138.69,121.35 138.69,260.85 138.69,260.85 C138.69,263.26 136.74,265.21 134.34,265.21z "/></g><g id="_R_G_L_2_G" transform=" translate(150, 150)"><path id="_R_G_L_2_G_D_0_P_0" fill="#f393a4" fill-opacity="1" fill-rule="nonzero" d=" M85.78 123.27 C85.78,123.27 72.88,114.45 72.88,114.45 C63.56,108.07 61.18,95.34 67.56,86.02 C73.94,76.69 86.67,74.31 95.99,80.69 C95.99,80.69 108.89,89.51 108.89,89.51 C118.21,95.89 120.59,108.62 114.21,117.95 C107.83,127.27 95.1,129.66 85.78,123.27z "/><path id="_R_G_L_2_G_D_1_P_0" stroke="#343434" stroke-linecap="round" stroke-linejoin="round" fill="none" stroke-width="1" stroke-opacity="1" d=" M85.78 123.27 C85.78,123.27 72.88,114.45 72.88,114.45 C63.56,108.07 61.18,95.34 67.56,86.02 C73.94,76.69 86.67,74.31 95.99,80.69 C95.99,80.69 108.89,89.51 108.89,89.51 C118.21,95.89 120.59,108.62 114.21,117.95 C107.83,127.27 95.1,129.66 85.78,123.27z "/><path id="_R_G_L_2_G_D_2_P_0" fill="#f393a4" fill-opacity="1" fill-rule="nonzero" d=" M155.47 123.27 C155.47,123.27 168.36,114.45 168.36,114.45 C177.68,108.07 180.07,95.34 173.69,86.02 C167.31,76.69 154.58,74.31 145.25,80.69 C145.25,80.69 132.36,89.51 132.36,89.51 C123.04,95.89 120.65,108.62 127.03,117.95 C133.41,127.27 146.14,129.66 155.47,123.27z "/><path id="_R_G_L_2_G_D_3_P_0" stroke="#343434" stroke-linecap="round" stroke-linejoin="round" fill="none" stroke-width="1" stroke-opacity="1" d=" M155.47 123.27 C155.47,123.27 168.36,114.45 168.36,114.45 C177.68,108.07 180.07,95.34 173.69,86.02 C167.31,76.69 154.58,74.31 145.25,80.69 C145.25,80.69 132.36,89.51 132.36,89.51 C123.04,95.89 120.65,108.62 127.03,117.95 C133.41,127.27 146.14,129.66 155.47,123.27z "/><path id="_R_G_L_2_G_D_4_P_0" fill="#f4bec7" fill-opacity="1" fill-rule="nonzero" d=" M188.48 136.31 C188.48,136.31 49.61,136.31 49.61,136.31 C43.33,136.31 38.25,131.23 38.25,124.95 C38.25,124.95 38.25,114.67 38.25,114.67 C38.25,108.39 43.33,103.3 49.61,103.3 C49.61,103.3 188.48,103.3 188.48,103.3 C194.75,103.3 199.84,108.39 199.84,114.67 C199.84,114.67 199.84,124.95 199.84,124.95 C199.84,131.23 194.75,136.31 188.48,136.31z "/><path id="_R_G_L_2_G_D_5_P_0" stroke="#343434" stroke-linecap="round" stroke-linejoin="round" fill="none" stroke-width="1" stroke-opacity="1" d=" M188.48 136.31 C188.48,136.31 49.61,136.31 49.61,136.31 C43.33,136.31 38.25,131.23 38.25,124.95 C38.25,124.95 38.25,114.67 38.25,114.67 C38.25,108.39 43.33,103.3 49.61,103.3 C49.61,103.3 188.48,103.3 188.48,103.3 C194.75,103.3 199.84,108.39 199.84,114.67 C199.84,114.67 199.84,124.95 199.84,124.95 C199.84,131.23 194.75,136.31 188.48,136.31z "/><path id="_R_G_L_2_G_D_6_P_0" fill="#f393a4" fill-opacity="1" fill-rule="nonzero" d=" M130.47 136.36 C130.47,136.36 107.61,136.36 107.61,136.36 C101.34,136.36 96.25,131.27 96.25,124.99 C96.25,124.99 96.25,114.62 96.25,114.62 C96.25,108.35 101.34,103.26 107.61,103.26 C107.61,103.26 130.47,103.26 130.47,103.26 C136.75,103.26 141.84,108.35 141.84,114.62 C141.84,114.62 141.84,124.99 141.84,124.99 C141.84,131.27 136.75,136.36 130.47,136.36z "/><path id="_R_G_L_2_G_D_7_P_0" stroke="#343434" stroke-linecap="round" stroke-linejoin="round" fill="none" stroke-width="1" stroke-opacity="1" d=" M130.47 136.36 C130.47,136.36 107.61,136.36 107.61,136.36 C101.34,136.36 96.25,131.27 96.25,124.99 C96.25,124.99 96.25,114.62 96.25,114.62 C96.25,108.35 101.34,103.26 107.61,103.26 C107.61,103.26 130.47,103.26 130.47,103.26 C136.75,103.26 141.84,108.35 141.84,114.62 C141.84,114.62 141.84,124.99 141.84,124.99 C141.84,131.27 136.75,136.36 130.47,136.36z "/></g><g id="_R_G_L_1_G" transform=" translate(150, 150)"><path id="_R_G_L_1_G_D_0_P_0" fill="#ffffff" fill-opacity="1" fill-rule="nonzero" d=" M201.57 114.31 C182.74,114.31 167.42,98.99 167.42,80.16 C167.42,61.33 182.74,46.01 201.57,46.01 C220.4,46.01 235.72,61.33 235.72,80.16 C235.72,98.99 220.4,114.31 201.57,114.31z "/><path id="_R_G_L_1_G_D_1_P_0" fill="#343434" fill-opacity="1" fill-rule="nonzero" d=" M201.57 46.51 C220.13,46.51 235.22,61.6 235.22,80.16 C235.22,98.71 220.13,113.81 201.57,113.81 C183.01,113.81 167.92,98.71 167.92,80.16 C167.92,61.6 183.01,46.51 201.57,46.51z  M201.57 45.51 C182.43,45.51 166.92,61.02 166.92,80.16 C166.92,99.3 182.43,114.81 201.57,114.81 C220.71,114.81 236.22,99.3 236.22,80.16 C236.22,61.02 220.71,45.51 201.57,45.51z "/><path id="_R_G_L_1_G_D_2_P_0" fill="#373535" fill-opacity="1" fill-rule="nonzero" d=" M215.98 66.6 C215.96,66.58 215.93,66.57 215.91,66.55 C213.76,65.13 210.84,65.69 209.36,67.84 C206.07,72.62 199.01,82.83 199.01,82.83 C198.75,83.18 198.26,83.28 197.92,83.03 C197.92,83.03 192.39,79.27 192.39,79.27 C191.32,78.54 190.02,78.25 188.71,78.51 C187.45,78.75 186.34,79.46 185.59,80.52 C185.59,80.54 185.58,80.56 185.56,80.58 C184.85,81.63 184.59,82.89 184.83,84.13 C185.05,85.36 185.78,86.46 186.82,87.16 C186.82,87.16 197.67,94.54 197.67,94.54 C199.56,95.83 202.15,95.33 203.44,93.45 C205.2,90.89 208.31,86.38 211.29,82.07 C213.6,78.73 215.82,75.5 217.25,73.41 C217.99,72.33 218.27,71.02 218.03,69.74 C217.79,68.46 217.06,67.34 215.98,66.6z "/><path id="_R_G_L_1_G_D_3_P_0" stroke="#343434" stroke-linecap="round" stroke-linejoin="round" fill="none" stroke-width="1" stroke-opacity="1" d=" M215.98 66.6 C215.96,66.58 215.93,66.57 215.91,66.55 C213.76,65.13 210.84,65.69 209.36,67.84 C206.07,72.62 199.01,82.83 199.01,82.83 C198.75,83.18 198.26,83.28 197.92,83.03 C197.92,83.03 192.39,79.27 192.39,79.27 C191.32,78.54 190.02,78.25 188.71,78.51 C187.45,78.75 186.34,79.46 185.59,80.52 C185.59,80.54 185.58,80.56 185.56,80.58 C184.85,81.63 184.59,82.89 184.83,84.13 C185.05,85.36 185.78,86.46 186.82,87.16 C186.82,87.16 197.67,94.54 197.67,94.54 C199.56,95.83 202.15,95.33 203.44,93.45 C205.2,90.89 208.31,86.38 211.29,82.07 C213.6,78.73 215.82,75.5 217.25,73.41 C217.99,72.33 218.27,71.02 218.03,69.74 C217.79,68.46 217.06,67.34 215.98,66.6z "/></g><g id="_R_G_L_0_G"><path id="_R_G_L_0_G_D_0_P_0" fill="#a3a3a3" fill-opacity="1" fill-rule="nonzero" d=" M206.08 41.38 C206.08,41.38 206.08,41.38 206.08,41.38 C203.47,41 201.66,38.59 202.03,35.98 C202.03,35.98 203.63,24.82 203.63,24.82 C204.01,22.21 206.42,20.4 209.03,20.77 C211.64,21.15 213.45,23.56 213.07,26.17 C213.07,26.17 211.47,37.33 211.47,37.33 C211.1,39.94 208.68,41.75 206.08,41.38z "/><path id="_R_G_L_0_G_D_1_P_0" fill="#a3a3a3" fill-opacity="1" fill-rule="nonzero" d=" M179.88 47.12 C179.88,47.12 179.88,47.12 179.88,47.12 C177.64,48.51 174.7,47.83 173.31,45.59 C173.31,45.59 167.36,36.01 167.36,36.01 C165.97,33.77 166.66,30.83 168.89,29.44 C171.13,28.05 174.07,28.74 175.46,30.98 C175.46,30.98 181.41,40.56 181.41,40.56 C182.8,42.79 182.11,45.73 179.88,47.12z "/><path id="_R_G_L_0_G_D_2_P_0" fill="#a3a3a3" fill-opacity="1" fill-rule="nonzero" d=" M163.5 68.37 C163.5,68.37 163.5,68.37 163.5,68.37 C162.68,70.87 159.98,72.23 157.48,71.41 C157.48,71.41 146.76,67.9 146.76,67.9 C144.26,67.08 142.9,64.38 143.72,61.88 C144.54,59.38 147.23,58.01 149.74,58.84 C149.74,58.84 160.45,62.35 160.45,62.35 C162.95,63.17 164.32,65.86 163.5,68.37z "/><path id="_R_G_L_0_G_D_3_P_0" fill="#a3a3a3" fill-opacity="1" fill-rule="nonzero" d=" M209.27 118.55 C209.27,118.55 209.27,118.55 209.27,118.55 C211.85,118.01 214.37,119.66 214.92,122.24 C214.92,122.24 217.23,133.28 217.23,133.28 C217.77,135.85 216.12,138.38 213.54,138.92 C210.96,139.46 208.44,137.81 207.9,135.23 C207.9,135.23 205.58,124.2 205.58,124.2 C205.04,121.62 206.69,119.09 209.27,118.55z "/><path id="_R_G_L_0_G_D_4_P_0" fill="#a3a3a3" fill-opacity="1" fill-rule="nonzero" d=" M231.93 104.19 C231.93,104.19 231.93,104.19 231.93,104.19 C233.55,102.12 236.55,101.76 238.62,103.39 C238.62,103.39 247.49,110.35 247.49,110.35 C249.56,111.98 249.92,114.98 248.29,117.05 C246.67,119.12 243.67,119.48 241.6,117.85 C241.6,117.85 232.73,110.88 232.73,110.88 C230.66,109.26 230.3,106.26 231.93,104.19z "/><path id="_R_G_L_0_G_D_5_P_0" fill="#a3a3a3" fill-opacity="1" fill-rule="nonzero" d=" M240.05 78.62 C240.05,78.62 240.05,78.62 240.05,78.62 C239.97,75.99 242.03,73.79 244.66,73.71 C244.66,73.71 255.94,73.34 255.94,73.34 C258.57,73.26 260.77,75.32 260.85,77.95 C260.94,80.59 258.87,82.79 256.24,82.87 C256.24,82.87 244.97,83.24 244.97,83.24 C242.34,83.32 240.14,81.26 240.05,78.62z "/><path id="_R_G_L_0_G_D_6_P_0" fill="#a3a3a3" fill-opacity="1" fill-rule="nonzero" d=" M229.84 53.82 C229.84,53.82 229.84,53.82 229.84,53.82 C228.09,51.86 228.25,48.84 230.21,47.09 C230.21,47.09 238.62,39.56 238.62,39.56 C240.58,37.8 243.59,37.97 245.35,39.93 C247.11,41.89 246.94,44.91 244.98,46.67 C244.98,46.67 236.57,54.19 236.57,54.19 C234.61,55.95 231.6,55.78 229.84,53.82z "/></g></g><g id="time_group"/></svg>