<svg xmlns="http://www.w3.org/2000/svg" xmlns:xlink="http://www.w3.org/1999/xlink" preserveAspectRatio="xMidYMid meet" width="300" height="300" viewBox="0 0 300 300" style="width:100%;height:100%"><defs><animateMotion repeatCount="indefinite" dur="1s" begin="0s" xlink:href="#_R_G_L_4_G" fill="freeze" keyTimes="0;0.125;0.2916667;1" path="M150 150 C150,150.17 150,151 150,151 C150,151 150,150.17 150,150 C150,150 150,150 150,150 " keyPoints="0;0.5;1;1" keySplines="0.167 0.167 0.833 0.833;0.167 0.167 0.833 0.833;0 0 0 0" calcMode="spline"/><animateTransform repeatCount="indefinite" dur="1s" begin="0s" xlink:href="#_R_G_L_4_G" fill="freeze" attributeName="transform" from="-150 -150" to="-150 -150" type="translate" additive="sum" keyTimes="0;1" values="-150 -150;-150 -150" keySplines="0 0 1 1" calcMode="spline"/><animateTransform repeatCount="indefinite" dur="1s" begin="0s" xlink:href="#_R_G_L_3_G" fill="freeze" attributeName="transform" from="0.6 0.6" to="1 1" type="scale" additive="sum" keyTimes="0;0.2916667;1" values="0.6 0.6;1 1;1 1" keySplines="0.167 0.167 0.833 0.833;0 0 0 0" calcMode="spline"/><animateTransform repeatCount="indefinite" dur="1s" begin="0s" xlink:href="#_R_G_L_3_G" fill="freeze" attributeName="transform" from="-150 -150" to="-150 -150" type="translate" additive="sum" keyTimes="0;1" values="-150 -150;-150 -150" keySplines="0 0 1 1" calcMode="spline"/><animate repeatCount="indefinite" dur="1s" begin="0s" xlink:href="#_R_G_L_2_G" fill="freeze" attributeName="opacity" from="0" to="1" keyTimes="0;0.25;1" values="0;1;1" keySplines="0.167 0.167 0.833 0.833;0 0 0 0" calcMode="spline"/><animateTransform repeatCount="indefinite" dur="1s" begin="0s" xlink:href="#_R_G_L_1_G" fill="freeze" attributeName="transform" from="0" to="388" type="rotate" additive="sum" keyTimes="0;0.2916667;0.5833333;0.7916667;1" values="0;243;388;388;388" keySplines="0.167 0.167 0.833 0.833;0.167 0.167 0.833 0.833;0.167 0.167 0.833 0.833;0 0 0 0" calcMode="spline"/><animateTransform repeatCount="indefinite" dur="1s" begin="0s" xlink:href="#_R_G_L_1_G" fill="freeze" attributeName="transform" from="-124 -247" to="-124 -247" type="translate" additive="sum" keyTimes="0;1" values="-124 -247;-124 -247" keySplines="0 0 1 1" calcMode="spline"/><animateTransform repeatCount="indefinite" dur="1s" begin="0s" xlink:href="#_R_G_L_0_G" fill="freeze" attributeName="transform" from="0" to="388" type="rotate" additive="sum" keyTimes="0;0.2916667;0.5833333;0.7916667;1" values="0;243;388;388;388" keySplines="0.167 0.167 0.833 0.833;0.167 0.167 0.833 0.833;0.167 0.167 0.833 0.833;0 0 0 0" calcMode="spline"/><animateTransform repeatCount="indefinite" dur="1s" begin="0s" xlink:href="#_R_G_L_0_G" fill="freeze" attributeName="transform" from="-124 -247" to="-124 -247" type="translate" additive="sum" keyTimes="0;1" values="-124 -247;-124 -247" keySplines="0 0 1 1" calcMode="spline"/><animate attributeType="XML" attributeName="opacity" dur="1s" from="0" to="1" xlink:href="#time_group"/></defs><g id="_R_G"><g id="_R_G_L_4_G"><path id="_R_G_L_4_G_D_0_P_0" fill="#fbd1d8" fill-opacity="1" fill-rule="nonzero" d=" M164.24 222.36 C164.24,222.36 96.97,222.36 96.97,222.36 C91.5,222.36 87.08,217.93 87.08,212.47 C87.08,212.47 87.08,145.7 87.08,145.7 C87.08,140.24 91.5,135.81 96.97,135.81 C96.97,135.81 164.24,135.81 164.24,135.81 C169.7,135.81 174.13,140.24 174.13,145.7 C174.13,145.7 174.13,212.47 174.13,212.47 C174.13,217.93 169.7,222.36 164.24,222.36z "/><path id="_R_G_L_4_G_D_1_P_0" stroke="#343434" stroke-linecap="round" stroke-linejoin="round" fill="none" stroke-width="1" stroke-opacity="1" d=" M164.24 222.36 C164.24,222.36 96.97,222.36 96.97,222.36 C91.5,222.36 87.08,217.93 87.08,212.47 C87.08,212.47 87.08,145.7 87.08,145.7 C87.08,140.24 91.5,135.81 96.97,135.81 C96.97,135.81 164.24,135.81 164.24,135.81 C169.7,135.81 174.13,140.24 174.13,145.7 C174.13,145.7 174.13,212.47 174.13,212.47 C174.13,217.93 169.7,222.36 164.24,222.36z "/><path id="_R_G_L_4_G_D_2_P_0" fill="#f393a4" fill-opacity="1" fill-rule="nonzero" d=" M169.61 190.93 C169.61,190.93 91.54,190.93 91.54,190.93 C89.01,190.93 86.95,188.88 86.95,186.35 C86.95,186.35 86.95,176.23 86.95,176.23 C86.95,173.7 89.01,171.65 91.54,171.65 C91.54,171.65 169.61,171.65 169.61,171.65 C172.14,171.65 174.19,173.7 174.19,176.23 C174.19,176.23 174.19,186.35 174.19,186.35 C174.19,188.88 172.14,190.93 169.61,190.93z "/><path id="_R_G_L_4_G_D_3_P_0" stroke="#343434" stroke-linecap="round" stroke-linejoin="round" fill="none" stroke-width="1" stroke-opacity="1" d=" M169.61 190.93 C169.61,190.93 91.54,190.93 91.54,190.93 C89.01,190.93 86.95,188.88 86.95,186.35 C86.95,186.35 86.95,176.23 86.95,176.23 C86.95,173.7 89.01,171.65 91.54,171.65 C91.54,171.65 169.61,171.65 169.61,171.65 C172.14,171.65 174.19,173.7 174.19,176.23 C174.19,176.23 174.19,186.35 174.19,186.35 C174.19,188.88 172.14,190.93 169.61,190.93z "/><path id="_R_G_L_4_G_D_4_P_0" fill="#f393a4" fill-opacity="1" fill-rule="nonzero" d=" M138.53 222.36 C138.53,222.36 122.68,222.36 122.68,222.36 C120.72,222.36 119.13,220.77 119.13,218.81 C119.13,218.81 119.13,149.7 119.13,149.7 C119.13,147.73 120.72,146.14 122.68,146.14 C122.68,146.14 138.53,146.14 138.53,146.14 C140.49,146.14 142.08,147.73 142.08,149.7 C142.08,149.7 142.08,218.81 142.08,218.81 C142.08,220.77 140.49,222.36 138.53,222.36z "/><path id="_R_G_L_4_G_D_5_P_0" stroke="#343434" stroke-linecap="round" stroke-linejoin="round" fill="none" stroke-width="1" stroke-opacity="1" d=" M138.53 222.36 C138.53,222.36 122.68,222.36 122.68,222.36 C120.72,222.36 119.13,220.77 119.13,218.81 C119.13,218.81 119.13,149.7 119.13,149.7 C119.13,147.73 120.72,146.14 122.68,146.14 C122.68,146.14 138.53,146.14 138.53,146.14 C140.49,146.14 142.08,147.73 142.08,149.7 C142.08,149.7 142.08,218.81 142.08,218.81 C142.08,220.77 140.49,222.36 138.53,222.36z "/><path id="_R_G_L_4_G_D_6_P_0" fill="#f393a4" fill-opacity="1" fill-rule="nonzero" d=" M182.74 146.14 C182.74,146.14 225.34,146.14 225.34,146.14 C226.98,146.14 228.53,146.94 229.48,148.28 C229.48,148.28 244.22,172.05 244.22,172.05 C244.61,172.67 245.01,173.29 245.46,173.87 C245.46,173.87 245.99,174.53 245.99,174.53 C246.42,175.08 246.9,175.58 247.42,176.04 C247.42,176.04 262.93,189.45 262.93,189.45 C263.85,190.4 264.36,191.67 264.36,192.99 C264.36,192.99 264.36,223.08 264.36,223.08 C264.36,225.89 262.09,228.16 259.28,228.16 C259.28,228.16 183.07,228.16 183.07,228.16 C180.26,228.16 177.99,225.89 177.99,223.08 C177.99,223.08 177.71,161.5 177.71,161.5 C177.71,161.5 177.93,149.51 177.93,149.51 C177.96,147.64 179.48,146.14 181.35,146.14 C181.35,146.14 182.74,146.14 182.74,146.14z "/><path id="_R_G_L_4_G_D_7_P_0" stroke="#343434" stroke-linecap="round" stroke-linejoin="round" fill="none" stroke-width="1" stroke-opacity="1" d=" M182.74 146.14 C182.74,146.14 225.34,146.14 225.34,146.14 C226.98,146.14 228.53,146.94 229.48,148.28 C229.48,148.28 244.22,172.05 244.22,172.05 C244.61,172.67 245.01,173.29 245.46,173.87 C245.46,173.87 245.99,174.53 245.99,174.53 C246.42,175.08 246.9,175.58 247.42,176.04 C247.42,176.04 262.93,189.45 262.93,189.45 C263.85,190.4 264.36,191.67 264.36,192.99 C264.36,192.99 264.36,223.08 264.36,223.08 C264.36,225.89 262.09,228.16 259.28,228.16 C259.28,228.16 183.07,228.16 183.07,228.16 C180.26,228.16 177.99,225.89 177.99,223.08 C177.99,223.08 177.71,161.5 177.71,161.5 C177.71,161.5 177.93,149.51 177.93,149.51 C177.96,147.64 179.48,146.14 181.35,146.14 C181.35,146.14 182.74,146.14 182.74,146.14z "/><path id="_R_G_L_4_G_D_8_P_0" fill="#a3a3a3" fill-opacity="1" fill-rule="nonzero" d=" M83.27 239.31 C81.02,239.31 79.19,237.48 79.19,235.23 C79.19,235.23 79.19,225.11 79.19,225.11 C79.19,222.86 81.02,221.03 83.27,221.03 C83.27,221.03 266.95,221.03 266.95,221.03 C269.2,221.03 271.03,222.86 271.03,225.11 C271.03,225.11 271.03,235.23 271.03,235.23 C271.03,237.48 269.2,239.31 266.95,239.31 C266.95,239.31 83.27,239.31 83.27,239.31z "/><path id="_R_G_L_4_G_D_9_P_0" fill="#343434" fill-opacity="1" fill-rule="nonzero" d=" M266.95 221.52 C268.93,221.52 270.53,223.13 270.53,225.11 C270.53,225.11 270.53,235.23 270.53,235.23 C270.53,237.2 268.93,238.81 266.95,238.81 C266.95,238.81 83.27,238.81 83.27,238.81 C81.3,238.81 79.69,237.2 79.69,235.23 C79.69,235.23 79.69,225.11 79.69,225.11 C79.69,223.13 81.3,221.52 83.27,221.52 C83.27,221.52 266.95,221.52 266.95,221.52z  M266.95 220.52 C266.95,220.52 83.27,220.52 83.27,220.52 C80.74,220.52 78.69,222.58 78.69,225.11 C78.69,225.11 78.69,235.23 78.69,235.23 C78.69,237.76 80.74,239.81 83.27,239.81 C83.27,239.81 266.95,239.81 266.95,239.81 C269.48,239.81 271.53,237.76 271.53,235.23 C271.53,235.23 271.53,225.11 271.53,225.11 C271.53,222.58 269.48,220.52 266.95,220.52z "/><path id="_R_G_L_4_G_D_10_P_0" fill="#f393a4" fill-opacity="1" fill-rule="nonzero" d=" M111.17 139.44 C111.17,139.44 103.64,134.29 103.64,134.29 C98.19,130.56 96.8,123.12 100.53,117.68 C104.26,112.23 111.69,110.84 117.14,114.56 C117.14,114.56 124.67,119.72 124.67,119.72 C130.12,123.45 131.51,130.88 127.78,136.33 C124.06,141.78 116.62,143.17 111.17,139.44z "/><path id="_R_G_L_4_G_D_11_P_0" stroke="#343434" stroke-linecap="round" stroke-linejoin="round" fill="none" stroke-width="1" stroke-opacity="1" d=" M111.17 139.44 C111.17,139.44 103.64,134.29 103.64,134.29 C98.19,130.56 96.8,123.12 100.53,117.68 C104.26,112.23 111.69,110.84 117.14,114.56 C117.14,114.56 124.67,119.72 124.67,119.72 C130.12,123.45 131.51,130.88 127.78,136.33 C124.06,141.78 116.62,143.17 111.17,139.44z "/><path id="_R_G_L_4_G_D_12_P_0" fill="#f393a4" fill-opacity="1" fill-rule="nonzero" d=" M151.89 139.44 C151.89,139.44 159.42,134.29 159.42,134.29 C164.86,130.56 166.26,123.12 162.53,117.68 C158.8,112.23 151.36,110.84 145.92,114.56 C145.92,114.56 138.39,119.72 138.39,119.72 C132.94,123.45 131.55,130.88 135.27,136.33 C139,141.78 146.44,143.17 151.89,139.44z "/><path id="_R_G_L_4_G_D_13_P_0" stroke="#343434" stroke-linecap="round" stroke-linejoin="round" fill="none" stroke-width="1" stroke-opacity="1" d=" M151.89 139.44 C151.89,139.44 159.42,134.29 159.42,134.29 C164.86,130.56 166.26,123.12 162.53,117.68 C158.8,112.23 151.36,110.84 145.92,114.56 C145.92,114.56 138.39,119.72 138.39,119.72 C132.94,123.45 131.55,130.88 135.27,136.33 C139,141.78 146.44,143.17 151.89,139.44z "/><path id="_R_G_L_4_G_D_14_P_0" fill="#f4bec7" fill-opacity="1" fill-rule="nonzero" d=" M168.16 147.06 C168.16,147.06 93.05,147.06 93.05,147.06 C87.72,147.06 83.4,142.74 83.4,137.42 C83.4,132.09 87.72,127.78 93.05,127.78 C93.05,127.78 168.16,127.78 168.16,127.78 C173.49,127.78 177.81,132.09 177.81,137.42 C177.81,142.74 173.49,147.06 168.16,147.06z "/><path id="_R_G_L_4_G_D_15_P_0" stroke="#343434" stroke-linecap="round" stroke-linejoin="round" fill="none" stroke-width="1" stroke-opacity="1" d=" M168.16 147.06 C168.16,147.06 93.05,147.06 93.05,147.06 C87.72,147.06 83.4,142.74 83.4,137.42 C83.4,132.09 87.72,127.78 93.05,127.78 C93.05,127.78 168.16,127.78 168.16,127.78 C173.49,127.78 177.81,132.09 177.81,137.42 C177.81,142.74 173.49,147.06 168.16,147.06z "/><path id="_R_G_L_4_G_D_16_P_0" fill="#f393a4" fill-opacity="1" fill-rule="nonzero" d=" M134.25 147.09 C134.25,147.09 126.96,147.09 126.96,147.09 C121.62,147.09 117.29,142.76 117.29,137.42 C117.29,132.08 121.62,127.75 126.96,127.75 C126.96,127.75 134.25,127.75 134.25,127.75 C139.59,127.75 143.92,132.08 143.92,137.42 C143.92,142.76 139.59,147.09 134.25,147.09z "/><path id="_R_G_L_4_G_D_17_P_0" stroke="#343434" stroke-linecap="round" stroke-linejoin="round" fill="none" stroke-width="1" stroke-opacity="1" d=" M134.25 147.09 C134.25,147.09 126.96,147.09 126.96,147.09 C121.62,147.09 117.29,142.76 117.29,137.42 C117.29,132.08 121.62,127.75 126.96,127.75 C126.96,127.75 134.25,127.75 134.25,127.75 C139.59,127.75 143.92,132.08 143.92,137.42 C143.92,142.76 139.59,147.09 134.25,147.09z "/><path id="_R_G_L_4_G_D_18_P_0" fill="#d2d2d2" fill-opacity="1" fill-rule="nonzero" d=" M238.13 177.68 C238.13,177.68 184.3,177.68 184.3,177.68 C183.16,177.68 182.24,176.75 182.24,175.61 C182.24,175.61 182.24,153.86 182.24,153.86 C182.24,152.72 183.16,151.79 184.3,151.79 C184.3,151.79 225.08,151.79 225.08,151.79 C225.8,151.79 226.48,152.17 226.85,152.79 C226.85,152.79 239.9,174.55 239.9,174.55 C240.73,175.93 239.74,177.68 238.13,177.68z "/></g><g id="_R_G_L_3_G" transform=" translate(150, 150)"><path id="_R_G_L_3_G_D_0_P_0" fill="#d2d2d2" fill-opacity="1" fill-rule="nonzero" d=" M224.15 135.29 C223.21,135.29 222.03,134.83 221.51,133.52 C221.51,133.52 199.91,82.35 199.91,82.35 C195.77,71.48 195.68,70.68 195.47,68.93 C195.41,68.48 195.35,67.98 195.22,67.25 C195.22,67.25 195.21,67.2 195.21,67.2 C195.21,67.2 195.06,66.81 195.06,66.81 C194.93,66.49 194.89,66.13 194.96,65.75 C194.96,65.75 194.97,65.68 194.97,65.68 C194.97,65.68 194.96,65.61 194.96,65.61 C194.85,64.68 194.8,63.92 194.78,63.22 C194.71,60.38 195.08,57.72 195.92,55.1 C199.66,43.48 210.56,35.37 222.41,35.37 C222.59,35.37 222.77,35.37 222.95,35.37 C237.86,35.67 249.99,47.85 249.99,62.53 C249.99,66.2 249.79,66.99 249.06,69.94 C248.77,71.09 248.41,72.56 247.95,74.64 C247.34,77.35 245.84,81.79 245.64,82.37 C245.64,82.37 226.86,133.35 226.86,133.35 C226.47,134.54 225.4,135.29 224.15,135.29 C224.15,135.29 224.15,135.29 224.15,135.29z "/><path id="_R_G_L_3_G_D_1_P_0" fill="#343434" fill-opacity="1" fill-rule="nonzero" d=" M222.42 35.87 C222.59,35.87 222.77,35.87 222.94,35.87 C230.07,36.01 236.74,38.85 241.74,43.86 C246.74,48.88 249.49,55.5 249.49,62.53 C249.49,66.14 249.3,66.92 248.57,69.82 C248.28,70.99 247.92,72.44 247.46,74.53 C246.86,77.22 245.37,81.63 245.17,82.19 C245.17,82.19 226.38,133.21 226.38,133.21 C225.99,134.38 224.97,134.79 224.15,134.79 C223.38,134.79 222.4,134.41 221.96,133.31 C221.96,133.31 200.39,82.18 200.39,82.18 C196.26,71.36 196.17,70.58 195.96,68.87 C195.91,68.42 195.85,67.91 195.71,67.16 C195.71,67.16 195.69,67.06 195.69,67.06 C195.69,67.06 195.66,66.97 195.66,66.97 C195.66,66.97 195.52,66.63 195.52,66.63 C195.43,66.39 195.4,66.12 195.45,65.83 C195.45,65.83 195.47,65.69 195.47,65.69 C195.47,65.69 195.46,65.55 195.46,65.55 C195.35,64.65 195.3,63.9 195.28,63.21 C195.21,60.42 195.58,57.82 196.4,55.26 C200.07,43.84 210.77,35.87 222.42,35.87z  M222.42 34.87 C210.03,34.87 199.2,43.29 195.45,54.95 C194.5,57.89 194.21,60.6 194.28,63.23 C194.3,64.06 194.37,64.86 194.46,65.67 C194.39,66.1 194.42,66.55 194.59,67 C194.59,67 194.73,67.33 194.73,67.33 C195.38,71 194.27,68.94 199.45,82.54 C199.45,82.54 221.04,133.7 221.04,133.7 C221.6,135.1 222.88,135.79 224.15,135.79 C225.49,135.79 226.83,135.03 227.33,133.53 C227.33,133.53 246.11,82.54 246.11,82.54 C246.37,81.82 247.84,77.44 248.43,74.75 C250.08,67.33 250.49,67.71 250.49,62.53 C250.49,47.44 238.22,35.18 222.96,34.87 C222.78,34.87 222.6,34.87 222.42,34.87z "/><path id="_R_G_L_3_G_D_2_P_0" fill="#ffffff" fill-opacity="1" fill-rule="nonzero" d=" M222.19 78.86 C213.91,78.86 207.17,72.12 207.17,63.84 C207.17,55.56 213.91,48.82 222.19,48.82 C230.47,48.82 237.2,55.56 237.2,63.84 C237.2,72.12 230.47,78.86 222.19,78.86z "/><path id="_R_G_L_3_G_D_3_P_0" fill="#343434" fill-opacity="1" fill-rule="nonzero" d=" M222.19 49.32 C230.19,49.32 236.7,55.84 236.7,63.84 C236.7,71.84 230.19,78.36 222.19,78.36 C214.18,78.36 207.67,71.84 207.67,63.84 C207.67,55.84 214.18,49.32 222.19,49.32z  M222.19 48.32 C213.62,48.32 206.67,55.27 206.67,63.84 C206.67,72.41 213.62,79.36 222.19,79.36 C230.75,79.36 237.7,72.41 237.7,63.84 C237.7,55.27 230.75,48.32 222.19,48.32z "/></g><g id="_R_G_L_2_G"><path id="_R_G_L_2_G_D_0_P_0" fill="#343434" fill-opacity="1" fill-rule="nonzero" d=" M101.89 164.86 C101.89,164.86 52.2,164.19 52.2,164.19 C49.84,164.15 47.96,162.22 47.99,159.86 C47.99,159.86 47.99,159.86 47.99,159.86 C48.02,157.5 49.96,155.62 52.31,155.65 C52.31,155.65 102.01,156.33 102.01,156.33 C104.37,156.36 106.25,158.29 106.22,160.65 C106.19,163.01 104.25,164.89 101.89,164.86z "/><path id="_R_G_L_2_G_D_1_P_0" fill="#343434" fill-opacity="1" fill-rule="nonzero" d=" M101.89 188.97 C101.89,188.97 28.89,187.97 28.89,187.97 C26.53,187.94 24.64,186 24.68,183.65 C24.71,181.29 26.64,179.4 29,179.44 C29,179.44 102.01,180.43 102.01,180.43 C104.37,180.46 106.25,182.4 106.22,184.76 C106.19,187.11 104.25,189 101.89,188.97z "/><path id="_R_G_L_2_G_D_2_P_0" fill="#343434" fill-opacity="1" fill-rule="nonzero" d=" M101.89 212.75 C101.89,212.75 52.2,212.08 52.2,212.08 C49.84,212.05 47.96,210.11 47.99,207.75 C48.02,205.39 49.96,203.51 52.31,203.54 C52.31,203.54 102.01,204.22 102.01,204.22 C104.37,204.25 106.25,206.19 106.22,208.54 C106.19,210.9 104.25,212.79 101.89,212.75z "/></g><g id="_R_G_L_1_G" transform=" translate(124, 247)"><path id="_R_G_L_1_G_D_0_P_0" fill="#f393a4" fill-opacity="1" fill-rule="nonzero" d=" M141.97 245.61 C141.97,255.24 134.15,263.05 124.52,263.05 C114.88,263.05 107.07,255.24 107.07,245.61 C107.07,235.97 114.88,228.16 124.52,228.16 C134.15,228.16 141.97,235.97 141.97,245.61z "/><path id="_R_G_L_1_G_D_1_P_0" stroke="#343434" stroke-linecap="round" stroke-linejoin="round" fill="none" stroke-width="1" stroke-opacity="1" d=" M141.97 245.61 C141.97,255.24 134.15,263.05 124.52,263.05 C114.88,263.05 107.07,255.24 107.07,245.61 C107.07,235.97 114.88,228.16 124.52,228.16 C134.15,228.16 141.97,235.97 141.97,245.61z "/></g><g id="_R_G_L_0_G" transform=" translate(226, 247)"><path id="_R_G_L_0_G_D_0_P_0" fill="#f393a4" fill-opacity="1" fill-rule="nonzero" d=" M141.97 245.61 C141.97,255.24 134.15,263.05 124.52,263.05 C114.88,263.05 107.07,255.24 107.07,245.61 C107.07,235.97 114.88,228.16 124.52,228.16 C134.15,228.16 141.97,235.97 141.97,245.61z "/><path id="_R_G_L_0_G_D_1_P_0" stroke="#343434" stroke-linecap="round" stroke-linejoin="round" fill="none" stroke-width="1" stroke-opacity="1" d=" M141.97 245.61 C141.97,255.24 134.15,263.05 124.52,263.05 C114.88,263.05 107.07,255.24 107.07,245.61 C107.07,235.97 114.88,228.16 124.52,228.16 C134.15,228.16 141.97,235.97 141.97,245.61z "/></g></g><g id="time_group"/></svg>