<svg xmlns="http://www.w3.org/2000/svg" xmlns:xlink="http://www.w3.org/1999/xlink" preserveAspectRatio="xMidYMid meet" width="300" height="300" viewBox="0 0 300 300" style="width:100%;height:100%"><defs><animate repeatCount="indefinite" dur="1s" begin="0s" xlink:href="#_R_G_L_1_G_D_2_P_0" fill="freeze" attributeName="fill" from="#474546" to="#474546" keyTimes="0;0.1666667;1" values="#474546;#f6a2b1;#f6a2b1" keySplines="0.167 0.167 0.833 0.833;0 0 0 0" calcMode="spline"/><animateTransform repeatCount="indefinite" dur="1s" begin="0s" xlink:href="#_R_G_L_1_G" fill="freeze" attributeName="transform" from="0.79 0.79" to="1 1" type="scale" additive="sum" keyTimes="0;0.125;1" values="0.79 0.79;1 1;1 1" keySplines="0.167 0.167 0.667 1;0 0 0 0" calcMode="spline"/><animateTransform repeatCount="indefinite" dur="1s" begin="0s" xlink:href="#_R_G_L_1_G" fill="freeze" attributeName="transform" from="-150 -150" to="-150 -150" type="translate" additive="sum" keyTimes="0;1" values="-150 -150;-150 -150" keySplines="0 0 1 1" calcMode="spline"/><animate repeatCount="indefinite" dur="1s" begin="0s" xlink:href="#_R_G_L_0_G" fill="freeze" attributeName="opacity" from="0" to="1" keyTimes="0;0.1666667;0.2916667;1" values="0;0.09925;1;1" keySplines="0.167 0.167 0.667 1;0.333 0 0.833 0.833;0 0 0 0" calcMode="spline"/><animate attributeType="XML" attributeName="opacity" dur="1s" from="0" to="1" xlink:href="#time_group"/></defs><g id="_R_G"><g id="_R_G_L_2_G"><path id="_R_G_L_2_G_D_0_P_0" fill="#f393a4" fill-opacity="1" fill-rule="nonzero" d=" M175.84 260.31 C175.84,260.31 65.83,260.31 65.83,260.31 C60.32,260.31 55.85,255.84 55.85,250.33 C55.85,250.33 55.85,102 55.85,102 C55.85,96.49 60.32,92.02 65.83,92.02 C65.83,92.02 175.84,92.02 175.84,92.02 C181.36,92.02 185.83,96.49 185.83,102 C185.83,102 185.83,250.33 185.83,250.33 C185.83,255.84 181.36,260.31 175.84,260.31z "/><path id="_R_G_L_2_G_D_1_P_0" stroke="#343434" stroke-linecap="round" stroke-linejoin="round" fill="none" stroke-width="1" stroke-opacity="1" d=" M175.84 260.31 C175.84,260.31 65.83,260.31 65.83,260.31 C60.32,260.31 55.85,255.84 55.85,250.33 C55.85,250.33 55.85,102 55.85,102 C55.85,96.49 60.32,92.02 65.83,92.02 C65.83,92.02 175.84,92.02 175.84,92.02 C181.36,92.02 185.83,96.49 185.83,102 C185.83,102 185.83,250.33 185.83,250.33 C185.83,255.84 181.36,260.31 175.84,260.31z "/><path id="_R_G_L_2_G_D_2_P_0" fill="#ffffff" fill-opacity="1" fill-rule="nonzero" d=" M74.85 247.71 C69.62,247.71 65.37,243.45 65.37,238.22 C65.37,238.22 65.37,108.43 65.37,108.43 C65.37,103.2 69.62,98.95 74.85,98.95 C74.85,98.95 166.83,98.95 166.83,98.95 C172.05,98.95 176.31,103.2 176.31,108.43 C176.31,108.43 176.31,238.22 176.31,238.22 C176.31,243.45 172.05,247.71 166.83,247.71 C166.83,247.71 74.85,247.71 74.85,247.71z "/><path id="_R_G_L_2_G_D_3_P_0" fill="#343434" fill-opacity="1" fill-rule="nonzero" d=" M166.83 99.45 C171.78,99.45 175.81,103.48 175.81,108.43 C175.81,108.43 175.81,238.22 175.81,238.22 C175.81,243.18 171.78,247.21 166.83,247.21 C166.83,247.21 74.85,247.21 74.85,247.21 C69.9,247.21 65.87,243.18 65.87,238.22 C65.87,238.22 65.87,108.43 65.87,108.43 C65.87,103.48 69.9,99.45 74.85,99.45 C74.85,99.45 166.83,99.45 166.83,99.45z  M166.83 98.45 C166.83,98.45 74.85,98.45 74.85,98.45 C69.34,98.45 64.87,102.92 64.87,108.43 C64.87,108.43 64.87,238.22 64.87,238.22 C64.87,243.74 69.34,248.21 74.85,248.21 C74.85,248.21 166.83,248.21 166.83,248.21 C172.34,248.21 176.81,243.74 176.81,238.22 C176.81,238.22 176.81,108.43 176.81,108.43 C176.81,102.92 172.34,98.45 166.83,98.45z "/><path id="_R_G_L_2_G_D_4_P_0" fill="#fbd1d8" fill-opacity="1" fill-rule="nonzero" d=" M87.83 152.9 C87.83,152.9 83.6,152.9 83.6,152.9 C78.08,152.9 73.61,148.44 73.61,142.92 C73.61,142.92 73.61,140.2 73.61,140.2 C73.61,134.68 78.08,130.21 83.6,130.21 C83.6,130.21 87.83,130.21 87.83,130.21 C93.35,130.21 97.82,134.68 97.82,140.2 C97.82,140.2 97.82,142.92 97.82,142.92 C97.82,148.44 93.35,152.9 87.83,152.9z "/><path id="_R_G_L_2_G_D_5_P_0" stroke="#343434" stroke-linecap="round" stroke-linejoin="round" fill="none" stroke-width="1" stroke-opacity="1" d=" M87.83 152.9 C87.83,152.9 83.6,152.9 83.6,152.9 C78.08,152.9 73.61,148.44 73.61,142.92 C73.61,142.92 73.61,140.2 73.61,140.2 C73.61,134.68 78.08,130.21 83.6,130.21 C83.6,130.21 87.83,130.21 87.83,130.21 C93.35,130.21 97.82,134.68 97.82,140.2 C97.82,140.2 97.82,142.92 97.82,142.92 C97.82,148.44 93.35,152.9 87.83,152.9z "/><path id="_R_G_L_2_G_D_6_P_0" fill="#f6a2b1" fill-opacity="1" fill-rule="nonzero" d=" M138.84 110.55 C138.84,110.55 102.83,110.55 102.83,110.55 C97.32,110.55 92.85,106.08 92.85,100.57 C92.85,100.57 92.85,91.79 92.85,91.79 C92.85,86.28 97.32,81.81 102.83,81.81 C102.83,81.81 138.84,81.81 138.84,81.81 C144.35,81.81 148.82,86.28 148.82,91.79 C148.82,91.79 148.82,100.57 148.82,100.57 C148.82,106.08 144.35,110.55 138.84,110.55z "/><path id="_R_G_L_2_G_D_7_P_0" stroke="#343434" stroke-linecap="round" stroke-linejoin="round" fill="none" stroke-width="1" stroke-opacity="1" d=" M138.84 110.55 C138.84,110.55 102.83,110.55 102.83,110.55 C97.32,110.55 92.85,106.08 92.85,100.57 C92.85,100.57 92.85,91.79 92.85,91.79 C92.85,86.28 97.32,81.81 102.83,81.81 C102.83,81.81 138.84,81.81 138.84,81.81 C144.35,81.81 148.82,86.28 148.82,91.79 C148.82,91.79 148.82,100.57 148.82,100.57 C148.82,106.08 144.35,110.55 138.84,110.55z "/><path id="_R_G_L_2_G_D_8_P_0" fill="#e68899" fill-opacity="1" fill-rule="nonzero" d=" M135.97 92.4 C135.97,92.4 105.71,92.4 105.71,92.4 C101.95,92.4 98.9,89.35 98.9,85.59 C98.9,81.83 101.95,78.78 105.71,78.78 C105.71,78.78 135.97,78.78 135.97,78.78 C139.73,78.78 142.77,81.83 142.77,85.59 C142.77,89.35 139.73,92.4 135.97,92.4z "/><path id="_R_G_L_2_G_D_9_P_0" stroke="#343434" stroke-linecap="round" stroke-linejoin="round" fill="none" stroke-width="1" stroke-opacity="1" d=" M135.97 92.4 C135.97,92.4 105.71,92.4 105.71,92.4 C101.95,92.4 98.9,89.35 98.9,85.59 C98.9,81.83 101.95,78.78 105.71,78.78 C105.71,78.78 135.97,78.78 135.97,78.78 C139.73,78.78 142.77,81.83 142.77,85.59 C142.77,89.35 139.73,92.4 135.97,92.4z "/><path id="_R_G_L_2_G_D_10_P_0" fill="#a3a3a3" fill-opacity="1" fill-rule="nonzero" d=" M91.77 136.66 C90.81,135.98 89.47,136.2 88.78,137.16 C88.78,137.16 84.51,143.16 84.51,143.16 C84.51,143.16 81.97,141.35 81.97,141.35 C81.01,140.66 79.67,140.89 78.98,141.85 C78.3,142.81 78.52,144.15 79.49,144.84 C79.49,144.84 83.44,147.65 83.44,147.65 C83.73,147.86 84.05,147.96 84.38,148 C85.26,148.32 86.28,148.07 86.85,147.27 C86.85,147.27 92.27,139.65 92.27,139.65 C92.96,138.69 92.73,137.35 91.77,136.66z "/><path id="_R_G_L_2_G_D_11_P_0" stroke="#343434" stroke-linecap="round" stroke-linejoin="round" fill="none" stroke-width="1" stroke-opacity="1" d=" M105.38 144.59 C105.38,144.59 165.89,144.59 165.89,144.59 "/><path id="_R_G_L_2_G_D_12_P_0" stroke="#343434" stroke-linecap="round" stroke-linejoin="round" fill="none" stroke-width="1" stroke-opacity="1" d=" M105.38 137.02 C105.38,137.02 165.89,137.02 165.89,137.02 "/><path id="_R_G_L_2_G_D_13_P_0" fill="#fbd1d8" fill-opacity="1" fill-rule="nonzero" d=" M87.83 190.72 C87.83,190.72 83.6,190.72 83.6,190.72 C78.08,190.72 73.61,186.25 73.61,180.74 C73.61,180.74 73.61,178.02 73.61,178.02 C73.61,172.5 78.08,168.03 83.6,168.03 C83.6,168.03 87.83,168.03 87.83,168.03 C93.35,168.03 97.82,172.5 97.82,178.02 C97.82,178.02 97.82,180.74 97.82,180.74 C97.82,186.25 93.35,190.72 87.83,190.72z "/><path id="_R_G_L_2_G_D_14_P_0" stroke="#343434" stroke-linecap="round" stroke-linejoin="round" fill="none" stroke-width="1" stroke-opacity="1" d=" M87.83 190.72 C87.83,190.72 83.6,190.72 83.6,190.72 C78.08,190.72 73.61,186.25 73.61,180.74 C73.61,180.74 73.61,178.02 73.61,178.02 C73.61,172.5 78.08,168.03 83.6,168.03 C83.6,168.03 87.83,168.03 87.83,168.03 C93.35,168.03 97.82,172.5 97.82,178.02 C97.82,178.02 97.82,180.74 97.82,180.74 C97.82,186.25 93.35,190.72 87.83,190.72z "/><path id="_R_G_L_2_G_D_15_P_0" fill="#a3a3a3" fill-opacity="1" fill-rule="nonzero" d=" M91.77 174.48 C90.81,173.79 89.47,174.02 88.78,174.98 C88.78,174.98 84.51,180.98 84.51,180.98 C84.51,180.98 81.97,179.17 81.97,179.17 C81.01,178.48 79.67,178.71 78.98,179.67 C78.3,180.63 78.52,181.97 79.49,182.65 C79.49,182.65 83.44,185.47 83.44,185.47 C83.73,185.67 84.05,185.77 84.38,185.82 C85.26,186.14 86.28,185.89 86.85,185.08 C86.85,185.08 92.27,177.47 92.27,177.47 C92.96,176.5 92.73,175.17 91.77,174.48z "/><path id="_R_G_L_2_G_D_16_P_0" stroke="#343434" stroke-linecap="round" stroke-linejoin="round" fill="none" stroke-width="1" stroke-opacity="1" d=" M105.38 182.4 C105.38,182.4 165.89,182.4 165.89,182.4 "/><path id="_R_G_L_2_G_D_17_P_0" stroke="#343434" stroke-linecap="round" stroke-linejoin="round" fill="none" stroke-width="1" stroke-opacity="1" d=" M105.38 174.84 C105.38,174.84 165.89,174.84 165.89,174.84 "/><path id="_R_G_L_2_G_D_18_P_0" fill="#fbd1d8" fill-opacity="1" fill-rule="nonzero" d=" M87.83 228.54 C87.83,228.54 83.6,228.54 83.6,228.54 C78.08,228.54 73.61,224.07 73.61,218.56 C73.61,218.56 73.61,215.83 73.61,215.83 C73.61,210.32 78.08,205.85 83.6,205.85 C83.6,205.85 87.83,205.85 87.83,205.85 C93.35,205.85 97.82,210.32 97.82,215.83 C97.82,215.83 97.82,218.56 97.82,218.56 C97.82,224.07 93.35,228.54 87.83,228.54z "/><path id="_R_G_L_2_G_D_19_P_0" stroke="#343434" stroke-linecap="round" stroke-linejoin="round" fill="none" stroke-width="1" stroke-opacity="1" d=" M87.83 228.54 C87.83,228.54 83.6,228.54 83.6,228.54 C78.08,228.54 73.61,224.07 73.61,218.56 C73.61,218.56 73.61,215.83 73.61,215.83 C73.61,210.32 78.08,205.85 83.6,205.85 C83.6,205.85 87.83,205.85 87.83,205.85 C93.35,205.85 97.82,210.32 97.82,215.83 C97.82,215.83 97.82,218.56 97.82,218.56 C97.82,224.07 93.35,228.54 87.83,228.54z "/><path id="_R_G_L_2_G_D_20_P_0" fill="#a3a3a3" fill-opacity="1" fill-rule="nonzero" d=" M91.77 212.3 C90.81,211.61 89.47,211.84 88.78,212.8 C88.78,212.8 84.51,218.79 84.51,218.79 C84.51,218.79 81.97,216.98 81.97,216.98 C81.01,216.3 79.67,216.52 78.98,217.49 C78.3,218.45 78.52,219.79 79.49,220.47 C79.49,220.47 83.44,223.29 83.44,223.29 C83.73,223.49 84.05,223.59 84.38,223.64 C85.26,223.96 86.28,223.7 86.85,222.9 C86.85,222.9 92.27,215.28 92.27,215.28 C92.96,214.32 92.73,212.98 91.77,212.3z "/><path id="_R_G_L_2_G_D_21_P_0" stroke="#343434" stroke-linecap="round" stroke-linejoin="round" fill="none" stroke-width="1" stroke-opacity="1" d=" M105.38 220.22 C105.38,220.22 165.89,220.22 165.89,220.22 "/><path id="_R_G_L_2_G_D_22_P_0" stroke="#343434" stroke-linecap="round" stroke-linejoin="round" fill="none" stroke-width="1" stroke-opacity="1" d=" M105.38 212.66 C105.38,212.66 165.89,212.66 165.89,212.66 "/></g><g id="_R_G_L_1_G" transform=" translate(150, 150)"><path id="_R_G_L_1_G_D_0_P_0" fill="#ffffff" fill-opacity="1" fill-rule="nonzero" d=" M194.79 110.36 C175.96,110.36 160.64,95.04 160.64,76.2 C160.64,57.37 175.96,42.05 194.79,42.05 C213.63,42.05 228.95,57.37 228.95,76.2 C228.95,95.04 213.63,110.36 194.79,110.36z "/><path id="_R_G_L_1_G_D_1_P_0" fill="#343434" fill-opacity="1" fill-rule="nonzero" d=" M194.79 42.55 C213.35,42.55 228.45,57.65 228.45,76.21 C228.45,94.76 213.35,109.86 194.79,109.86 C176.24,109.86 161.14,94.76 161.14,76.21 C161.14,57.65 176.24,42.55 194.79,42.55z  M194.79 41.55 C175.66,41.55 160.14,57.07 160.14,76.21 C160.14,95.34 175.66,110.86 194.79,110.86 C213.93,110.86 229.45,95.34 229.45,76.21 C229.45,57.07 213.93,41.55 194.79,41.55z "/><path id="_R_G_L_1_G_D_2_P_0" fill="#474546" fill-opacity="1" fill-rule="nonzero" d=" M209.21 62.65 C209.18,62.63 209.16,62.62 209.14,62.6 C206.98,61.18 204.06,61.74 202.59,63.88 C199.29,68.67 192.23,78.88 192.23,78.88 C191.98,79.23 191.49,79.32 191.14,79.08 C191.14,79.08 185.62,75.32 185.62,75.32 C184.54,74.58 183.24,74.3 181.93,74.56 C180.67,74.8 179.57,75.51 178.82,76.57 C178.81,76.59 178.8,76.61 178.79,76.63 C178.08,77.67 177.82,78.94 178.06,80.18 C178.28,81.41 179,82.51 180.04,83.21 C180.04,83.21 190.9,90.58 190.9,90.58 C192.78,91.88 195.38,91.38 196.67,89.5 C198.42,86.94 201.53,82.43 204.51,78.12 C206.82,74.77 209.05,71.55 210.48,69.46 C211.22,68.38 211.49,67.07 211.25,65.79 C211.01,64.51 210.29,63.39 209.21,62.65z "/><path id="_R_G_L_1_G_D_3_P_0" stroke="#343434" stroke-linecap="round" stroke-linejoin="round" fill="none" stroke-width="1" stroke-opacity="1" d=" M209.21 62.65 C209.18,62.63 209.16,62.62 209.14,62.6 C206.98,61.18 204.06,61.74 202.59,63.88 C199.29,68.67 192.23,78.88 192.23,78.88 C191.98,79.23 191.49,79.32 191.14,79.08 C191.14,79.08 185.62,75.32 185.62,75.32 C184.54,74.58 183.24,74.3 181.93,74.56 C180.67,74.8 179.57,75.51 178.82,76.57 C178.81,76.59 178.8,76.61 178.79,76.63 C178.08,77.67 177.82,78.94 178.06,80.18 C178.28,81.41 179,82.51 180.04,83.21 C180.04,83.21 190.9,90.58 190.9,90.58 C192.78,91.88 195.38,91.38 196.67,89.5 C198.42,86.94 201.53,82.43 204.51,78.12 C206.82,74.77 209.05,71.55 210.48,69.46 C211.22,68.38 211.49,67.07 211.25,65.79 C211.01,64.51 210.29,63.39 209.21,62.65z "/></g><g id="_R_G_L_0_G"><path id="_R_G_L_0_G_D_0_P_0" fill="#a3a3a3" fill-opacity="1" fill-rule="nonzero" d=" M199.3 37.42 C199.3,37.42 199.3,37.42 199.3,37.42 C196.7,37.05 194.88,34.63 195.26,32.03 C195.26,32.03 196.86,20.86 196.86,20.86 C197.23,18.26 199.65,16.45 202.25,16.82 C204.86,17.2 206.67,19.61 206.3,22.22 C206.3,22.22 204.7,33.38 204.7,33.38 C204.32,35.99 201.91,37.8 199.3,37.42z "/><path id="_R_G_L_0_G_D_1_P_0" fill="#a3a3a3" fill-opacity="1" fill-rule="nonzero" d=" M173.1 43.17 C173.1,43.17 173.1,43.17 173.1,43.17 C170.86,44.56 167.92,43.87 166.53,41.63 C166.53,41.63 160.58,32.06 160.58,32.06 C159.19,29.82 159.88,26.88 162.12,25.49 C164.35,24.1 167.29,24.79 168.68,27.02 C168.68,27.02 174.63,36.6 174.63,36.6 C176.02,38.84 175.34,41.78 173.1,43.17z "/><path id="_R_G_L_0_G_D_2_P_0" fill="#a3a3a3" fill-opacity="1" fill-rule="nonzero" d=" M156.72 64.41 C156.72,64.41 156.72,64.41 156.72,64.41 C155.9,66.92 153.2,68.28 150.7,67.46 C150.7,67.46 139.99,63.95 139.99,63.95 C137.48,63.13 136.12,60.43 136.94,57.93 C137.76,55.43 140.46,54.06 142.96,54.88 C142.96,54.88 153.67,58.4 153.67,58.4 C156.18,59.22 157.54,61.91 156.72,64.41z "/><path id="_R_G_L_0_G_D_3_P_0" fill="#a3a3a3" fill-opacity="1" fill-rule="nonzero" d=" M202.49 114.6 C202.49,114.6 202.49,114.6 202.49,114.6 C205.07,114.06 207.6,115.71 208.14,118.29 C208.14,118.29 210.45,129.32 210.45,129.32 C210.99,131.9 209.34,134.43 206.77,134.97 C204.19,135.51 201.66,133.86 201.12,131.28 C201.12,131.28 198.8,120.24 198.8,120.24 C198.26,117.67 199.92,115.14 202.49,114.6z "/><path id="_R_G_L_0_G_D_4_P_0" fill="#a3a3a3" fill-opacity="1" fill-rule="nonzero" d=" M225.15 100.24 C225.15,100.24 225.15,100.24 225.15,100.24 C226.78,98.17 229.77,97.81 231.84,99.43 C231.84,99.43 240.71,106.4 240.71,106.4 C242.78,108.03 243.14,111.02 241.52,113.09 C239.89,115.17 236.89,115.53 234.82,113.9 C234.82,113.9 225.95,106.93 225.95,106.93 C223.88,105.31 223.52,102.31 225.15,100.24z "/><path id="_R_G_L_0_G_D_5_P_0" fill="#a3a3a3" fill-opacity="1" fill-rule="nonzero" d=" M233.27 74.67 C233.27,74.67 233.27,74.67 233.27,74.67 C233.19,72.04 235.25,69.84 237.89,69.75 C237.89,69.75 249.16,69.39 249.16,69.39 C251.79,69.31 253.99,71.37 254.08,74 C254.16,76.63 252.1,78.84 249.46,78.92 C249.46,78.92 238.19,79.28 238.19,79.28 C235.56,79.37 233.36,77.3 233.27,74.67z "/><path id="_R_G_L_0_G_D_6_P_0" fill="#a3a3a3" fill-opacity="1" fill-rule="nonzero" d=" M223.07 49.86 C223.07,49.86 223.07,49.86 223.07,49.86 C221.31,47.9 221.48,44.89 223.44,43.13 C223.44,43.13 231.84,35.61 231.84,35.61 C233.8,33.85 236.82,34.02 238.57,35.98 C240.33,37.94 240.16,40.96 238.2,42.71 C238.2,42.71 229.8,50.24 229.8,50.24 C227.84,51.99 224.82,51.83 223.07,49.86z "/></g></g><g id="time_group"/></svg>