<svg xmlns="http://www.w3.org/2000/svg" xmlns:xlink="http://www.w3.org/1999/xlink" preserveAspectRatio="xMidYMid meet" width="300" height="300" viewBox="0 0 300 300" style="width:100%;height:100%"><defs><animate repeatCount="indefinite" dur="1s" begin="0s" xlink:href="#_R_G_L_1_G_D_13_P_0" fill="freeze" attributeName="fill" from="#d2d2d2" to="#d2d2d2" keyTimes="0;0.2916667;0.3333333;1" values="#d2d2d2;#d2d2d2;#3e3e3c;#3e3e3c" keySplines="0.167 0.167 0.833 0.833;0.167 0.167 0.833 0.833;0 0 0 0" calcMode="spline"/><animateTransform repeatCount="indefinite" dur="1s" begin="0s" xlink:href="#_R_G_L_0_G" fill="freeze" attributeName="transform" from="-35" to="0" type="rotate" additive="sum" keyTimes="0;0.3333333;1" values="-35;0;0" keySplines="0.333 0 0.833 0.833;0 0 0 0" calcMode="spline"/><animateTransform repeatCount="indefinite" dur="1s" begin="0s" xlink:href="#_R_G_L_0_G" fill="freeze" attributeName="transform" from="-150 -150" to="-150 -150" type="translate" additive="sum" keyTimes="0;1" values="-150 -150;-150 -150" keySplines="0 0 1 1" calcMode="spline"/><animate attributeType="XML" attributeName="opacity" dur="1s" from="0" to="1" xlink:href="#time_group"/></defs><g id="_R_G"><g id="_R_G_L_1_G"><path id="_R_G_L_1_G_D_0_P_0" fill="#fbd1d8" fill-opacity="1" fill-rule="nonzero" d=" M164.35 272.23 C164.35,272.23 81.44,272.23 81.44,272.23 C76.54,272.23 72.56,268.26 72.56,263.35 C72.56,263.35 72.56,263.14 72.56,263.14 C72.56,258.23 76.54,254.26 81.44,254.26 C81.44,254.26 164.35,254.26 164.35,254.26 C169.26,254.26 173.23,258.23 173.23,263.14 C173.23,263.14 173.23,263.35 173.23,263.35 C173.23,268.26 169.26,272.23 164.35,272.23z "/><path id="_R_G_L_1_G_D_1_P_0" stroke="#343434" stroke-linecap="round" stroke-linejoin="round" fill="none" stroke-width="1" stroke-opacity="1" d=" M164.35 272.23 C164.35,272.23 81.44,272.23 81.44,272.23 C76.54,272.23 72.56,268.26 72.56,263.35 C72.56,263.35 72.56,263.14 72.56,263.14 C72.56,258.23 76.54,254.26 81.44,254.26 C81.44,254.26 164.35,254.26 164.35,254.26 C169.26,254.26 173.23,258.23 173.23,263.14 C173.23,263.14 173.23,263.35 173.23,263.35 C173.23,268.26 169.26,272.23 164.35,272.23z "/><path id="_R_G_L_1_G_D_2_P_0" fill="#f393a4" fill-opacity="1" fill-rule="nonzero" d=" M180.15 265.04 C180.15,265.04 65.46,265.04 65.46,265.04 C58.91,265.04 53.6,259.73 53.6,253.18 C53.6,253.18 53.6,76.92 53.6,76.92 C53.6,70.37 58.91,65.06 65.46,65.06 C65.46,65.06 180.15,65.06 180.15,65.06 C186.7,65.06 192.01,70.37 192.01,76.92 C192.01,76.92 192.01,253.18 192.01,253.18 C192.01,259.73 186.7,265.04 180.15,265.04z "/><path id="_R_G_L_1_G_D_3_P_0" stroke="#343434" stroke-linecap="round" stroke-linejoin="round" fill="none" stroke-width="1" stroke-opacity="1" d=" M180.15 265.04 C180.15,265.04 65.46,265.04 65.46,265.04 C58.91,265.04 53.6,259.73 53.6,253.18 C53.6,253.18 53.6,76.92 53.6,76.92 C53.6,70.37 58.91,65.06 65.46,65.06 C65.46,65.06 180.15,65.06 180.15,65.06 C186.7,65.06 192.01,70.37 192.01,76.92 C192.01,76.92 192.01,253.18 192.01,253.18 C192.01,259.73 186.7,265.04 180.15,265.04z "/><path id="_R_G_L_1_G_D_4_P_0" fill="#ffffff" fill-opacity="1" fill-rule="nonzero" d=" M83.16 191.34 C83.16,191.34 79.05,191.34 79.05,191.34 C74.72,191.34 71.21,187.83 71.21,183.51 C71.21,183.51 71.21,180.64 71.21,180.64 C71.21,176.31 74.72,172.8 79.05,172.8 C79.05,172.8 83.16,172.8 83.16,172.8 C87.48,172.8 90.99,176.31 90.99,180.64 C90.99,180.64 90.99,183.51 90.99,183.51 C90.99,187.83 87.48,191.34 83.16,191.34z "/><path id="_R_G_L_1_G_D_5_P_0" fill="#ffffff" fill-opacity="1" fill-rule="nonzero" d=" M124.86 191.34 C124.86,191.34 120.75,191.34 120.75,191.34 C116.42,191.34 112.92,187.83 112.92,183.51 C112.92,183.51 112.92,180.64 112.92,180.64 C112.92,176.31 116.42,172.8 120.75,172.8 C120.75,172.8 124.86,172.8 124.86,172.8 C129.18,172.8 132.69,176.31 132.69,180.64 C132.69,180.64 132.69,183.51 132.69,183.51 C132.69,187.83 129.18,191.34 124.86,191.34z "/><path id="_R_G_L_1_G_D_6_P_0" fill="#ffffff" fill-opacity="1" fill-rule="nonzero" d=" M165.85 191.34 C165.85,191.34 161.74,191.34 161.74,191.34 C157.41,191.34 153.91,187.83 153.91,183.51 C153.91,183.51 153.91,180.64 153.91,180.64 C153.91,176.31 157.41,172.8 161.74,172.8 C161.74,172.8 165.85,172.8 165.85,172.8 C170.17,172.8 173.68,176.31 173.68,180.64 C173.68,180.64 173.68,183.51 173.68,183.51 C173.68,187.83 170.17,191.34 165.85,191.34z "/><path id="_R_G_L_1_G_D_7_P_0" fill="#ffffff" fill-opacity="1" fill-rule="nonzero" d=" M83.16 221.9 C83.16,221.9 79.05,221.9 79.05,221.9 C74.72,221.9 71.21,218.39 71.21,214.07 C71.21,214.07 71.21,211.2 71.21,211.2 C71.21,206.87 74.72,203.36 79.05,203.36 C79.05,203.36 83.16,203.36 83.16,203.36 C87.48,203.36 90.99,206.87 90.99,211.2 C90.99,211.2 90.99,214.07 90.99,214.07 C90.99,218.39 87.48,221.9 83.16,221.9z "/><path id="_R_G_L_1_G_D_8_P_0" fill="#ffffff" fill-opacity="1" fill-rule="nonzero" d=" M124.86 221.9 C124.86,221.9 120.75,221.9 120.75,221.9 C116.42,221.9 112.92,218.39 112.92,214.07 C112.92,214.07 112.92,211.2 112.92,211.2 C112.92,206.87 116.42,203.36 120.75,203.36 C120.75,203.36 124.86,203.36 124.86,203.36 C129.18,203.36 132.69,206.87 132.69,211.2 C132.69,211.2 132.69,214.07 132.69,214.07 C132.69,218.39 129.18,221.9 124.86,221.9z "/><path id="_R_G_L_1_G_D_9_P_0" fill="#ffffff" fill-opacity="1" fill-rule="nonzero" d=" M165.85 221.9 C165.85,221.9 161.74,221.9 161.74,221.9 C157.41,221.9 153.91,218.39 153.91,214.07 C153.91,214.07 153.91,211.2 153.91,211.2 C153.91,206.87 157.41,203.36 161.74,203.36 C161.74,203.36 165.85,203.36 165.85,203.36 C170.17,203.36 173.68,206.87 173.68,211.2 C173.68,211.2 173.68,214.07 173.68,214.07 C173.68,218.39 170.17,221.9 165.85,221.9z "/><path id="_R_G_L_1_G_D_10_P_0" fill="#ffffff" fill-opacity="1" fill-rule="nonzero" d=" M83.16 252.46 C83.16,252.46 79.05,252.46 79.05,252.46 C74.72,252.46 71.21,248.95 71.21,244.63 C71.21,244.63 71.21,241.76 71.21,241.76 C71.21,237.43 74.72,233.92 79.05,233.92 C79.05,233.92 83.16,233.92 83.16,233.92 C87.48,233.92 90.99,237.43 90.99,241.76 C90.99,241.76 90.99,244.63 90.99,244.63 C90.99,248.95 87.48,252.46 83.16,252.46z "/><path id="_R_G_L_1_G_D_11_P_0" fill="#ffffff" fill-opacity="1" fill-rule="nonzero" d=" M124.86 252.46 C124.86,252.46 120.75,252.46 120.75,252.46 C116.42,252.46 112.92,248.95 112.92,244.63 C112.92,244.63 112.92,241.76 112.92,241.76 C112.92,237.43 116.42,233.92 120.75,233.92 C120.75,233.92 124.86,233.92 124.86,233.92 C129.18,233.92 132.69,237.43 132.69,241.76 C132.69,241.76 132.69,244.63 132.69,244.63 C132.69,248.95 129.18,252.46 124.86,252.46z "/><path id="_R_G_L_1_G_D_12_P_0" fill="#ffffff" fill-opacity="1" fill-rule="nonzero" d=" M165.85 252.46 C165.85,252.46 161.74,252.46 161.74,252.46 C157.41,252.46 153.91,248.95 153.91,244.63 C153.91,244.63 153.91,241.76 153.91,241.76 C153.91,237.43 157.41,233.92 161.74,233.92 C161.74,233.92 165.85,233.92 165.85,233.92 C170.17,233.92 173.68,237.43 173.68,241.76 C173.68,241.76 173.68,244.63 173.68,244.63 C173.68,248.95 170.17,252.46 165.85,252.46z "/><path id="_R_G_L_1_G_D_13_P_0" fill="#d2d2d2" fill-opacity="1" fill-rule="nonzero" d=" M78.04 136.91 C71.78,136.91 66.68,131.82 66.68,125.55 C66.68,125.55 66.68,95.35 66.68,95.35 C66.68,89.08 71.78,83.98 78.04,83.98 C78.04,83.98 167.57,83.98 167.57,83.98 C173.83,83.98 178.93,89.08 178.93,95.35 C178.93,95.35 178.93,125.55 178.93,125.55 C178.93,131.82 173.83,136.91 167.57,136.91 C167.57,136.91 78.04,136.91 78.04,136.91z "/><path id="_R_G_L_1_G_D_14_P_0" fill="#ffffff" fill-opacity="1" fill-rule="nonzero" d=" M167.57 84.48 C173.56,84.48 178.43,89.36 178.43,95.35 C178.43,95.35 178.43,125.55 178.43,125.55 C178.43,131.54 173.56,136.41 167.57,136.41 C167.57,136.41 78.04,136.41 78.04,136.41 C72.05,136.41 67.18,131.54 67.18,125.55 C67.18,125.55 67.18,95.35 67.18,95.35 C67.18,89.36 72.05,84.48 78.04,84.48 C78.04,84.48 167.57,84.48 167.57,84.48z  M167.57 83.48 C167.57,83.48 78.04,83.48 78.04,83.48 C71.49,83.48 66.18,88.79 66.18,95.35 C66.18,95.35 66.18,125.55 66.18,125.55 C66.18,132.1 71.49,137.41 78.04,137.41 C78.04,137.41 167.57,137.41 167.57,137.41 C174.12,137.41 179.43,132.1 179.43,125.55 C179.43,125.55 179.43,95.35 179.43,95.35 C179.43,88.79 174.12,83.48 167.57,83.48z "/><path id="_R_G_L_1_G_D_15_P_0" fill="#ffffff" fill-opacity="1" fill-rule="nonzero" d=" M105.62 74 C101,74 97.24,70.24 97.24,65.62 C97.24,65.62 97.24,45.62 97.24,45.62 C97.24,41 101,37.24 105.62,37.24 C105.62,37.24 139.99,37.24 139.99,37.24 C144.61,37.24 148.37,41 148.37,45.62 C148.37,45.62 148.37,65.62 148.37,65.62 C148.37,70.24 144.61,74 139.99,74 C139.99,74 105.62,74 105.62,74z "/><path id="_R_G_L_1_G_D_16_P_0" fill="#343434" fill-opacity="1" fill-rule="nonzero" d=" M139.99 37.74 C144.34,37.74 147.87,41.28 147.87,45.62 C147.87,45.62 147.87,65.62 147.87,65.62 C147.87,69.96 144.34,73.5 139.99,73.5 C139.99,73.5 105.62,73.5 105.62,73.5 C101.27,73.5 97.74,69.96 97.74,65.62 C97.74,65.62 97.74,45.62 97.74,45.62 C97.74,41.28 101.27,37.74 105.62,37.74 C105.62,37.74 139.99,37.74 139.99,37.74z  M139.99 36.74 C139.99,36.74 105.62,36.74 105.62,36.74 C100.71,36.74 96.74,40.72 96.74,45.62 C96.74,45.62 96.74,65.62 96.74,65.62 C96.74,70.52 100.71,74.5 105.62,74.5 C105.62,74.5 139.99,74.5 139.99,74.5 C144.9,74.5 148.87,70.52 148.87,65.62 C148.87,65.62 148.87,45.62 148.87,45.62 C148.87,40.72 144.9,36.74 139.99,36.74z "/><path id="_R_G_L_1_G_D_17_P_0" fill="#ffffff" fill-opacity="1" fill-rule="nonzero" d=" M71.51 158.37 C69.34,158.37 67.58,156.6 67.58,154.43 C67.58,152.26 69.34,150.49 71.51,150.49 C71.51,150.49 89.61,150.49 89.61,150.49 C91.78,150.49 93.54,152.26 93.54,154.43 C93.54,156.6 91.78,158.37 89.61,158.37 C89.61,158.37 71.51,158.37 71.51,158.37z "/><path id="_R_G_L_1_G_D_18_P_0" fill="#343434" fill-opacity="1" fill-rule="nonzero" d=" M89.61 151 C91.5,151 93.04,152.54 93.04,154.43 C93.04,156.33 91.5,157.87 89.61,157.87 C89.61,157.87 71.52,157.87 71.52,157.87 C69.62,157.87 68.08,156.33 68.08,154.43 C68.08,152.54 69.62,151 71.52,151 C71.52,151 89.61,151 89.61,151z  M89.61 150 C89.61,150 71.52,150 71.52,150 C69.06,150 67.08,151.98 67.08,154.43 C67.08,156.88 69.06,158.87 71.52,158.87 C71.52,158.87 89.61,158.87 89.61,158.87 C92.06,158.87 94.04,156.88 94.04,154.43 C94.04,151.98 92.06,150 89.61,150z "/><path id="_R_G_L_1_G_D_19_P_0" fill="#ffffff" fill-opacity="1" fill-rule="nonzero" d=" M113.76 158.37 C111.59,158.37 109.82,156.6 109.82,154.43 C109.82,152.26 111.59,150.49 113.76,150.49 C113.76,150.49 131.85,150.49 131.85,150.49 C134.02,150.49 135.79,152.26 135.79,154.43 C135.79,156.6 134.02,158.37 131.85,158.37 C131.85,158.37 113.76,158.37 113.76,158.37z "/><path id="_R_G_L_1_G_D_20_P_0" fill="#343434" fill-opacity="1" fill-rule="nonzero" d=" M131.85 151 C133.75,151 135.29,152.54 135.29,154.43 C135.29,156.33 133.75,157.87 131.85,157.87 C131.85,157.87 113.76,157.87 113.76,157.87 C111.86,157.87 110.32,156.33 110.32,154.43 C110.32,152.54 111.86,151 113.76,151 C113.76,151 131.85,151 131.85,151z  M131.85 150 C131.85,150 113.76,150 113.76,150 C111.31,150 109.32,151.98 109.32,154.43 C109.32,156.88 111.31,158.87 113.76,158.87 C113.76,158.87 131.85,158.87 131.85,158.87 C134.3,158.87 136.29,156.88 136.29,154.43 C136.29,151.98 134.3,150 131.85,150z "/><path id="_R_G_L_1_G_D_21_P_0" fill="#ffffff" fill-opacity="1" fill-rule="nonzero" d=" M156 158.37 C153.83,158.37 152.07,156.6 152.07,154.43 C152.07,152.26 153.83,150.49 156,150.49 C156,150.49 174.09,150.49 174.09,150.49 C176.27,150.49 178.03,152.26 178.03,154.43 C178.03,156.6 176.27,158.37 174.09,158.37 C174.09,158.37 156,158.37 156,158.37z "/><path id="_R_G_L_1_G_D_22_P_0" fill="#343434" fill-opacity="1" fill-rule="nonzero" d=" M174.09 151 C175.99,151 177.53,152.54 177.53,154.43 C177.53,156.33 175.99,157.87 174.09,157.87 C174.09,157.87 156,157.87 156,157.87 C154.11,157.87 152.57,156.33 152.57,154.43 C152.57,152.54 154.11,151 156,151 C156,151 174.09,151 174.09,151z  M174.09 150 C174.09,150 156,150 156,150 C153.55,150 151.57,151.98 151.57,154.43 C151.57,156.88 153.55,158.87 156,158.87 C156,158.87 174.09,158.87 174.09,158.87 C176.55,158.87 178.53,156.88 178.53,154.43 C178.53,151.98 176.55,150 174.09,150z "/></g><g id="_R_G_L_0_G" transform=" translate(150, 150)"><path id="_R_G_L_0_G_D_0_P_0" fill="#fbd1d8" fill-opacity="1" fill-rule="nonzero" d=" M227.03 161.18 C227.03,161.18 156.3,109.79 156.3,109.79 C149.3,104.7 147.74,94.9 152.83,87.89 C152.83,87.89 176.3,55.6 176.3,55.6 C181.39,48.59 191.19,47.04 198.2,52.13 C198.2,52.13 268.92,103.51 268.92,103.51 C275.93,108.6 277.48,118.41 272.39,125.41 C272.39,125.41 248.93,157.71 248.93,157.71 C243.84,164.71 234.04,166.27 227.03,161.18z "/><path id="_R_G_L_0_G_D_1_P_0" stroke="#343434" stroke-linecap="round" stroke-linejoin="round" fill="none" stroke-width="1" stroke-opacity="1" d=" M227.03 161.18 C227.03,161.18 156.3,109.79 156.3,109.79 C149.3,104.7 147.74,94.9 152.83,87.89 C152.83,87.89 176.3,55.6 176.3,55.6 C181.39,48.59 191.19,47.04 198.2,52.13 C198.2,52.13 268.92,103.51 268.92,103.51 C275.93,108.6 277.48,118.41 272.39,125.41 C272.39,125.41 248.93,157.71 248.93,157.71 C243.84,164.71 234.04,166.27 227.03,161.18z "/><path id="_R_G_L_0_G_D_2_P_0" fill="#343434" fill-opacity="1" fill-rule="nonzero" d=" M262.7 128.35 C262.7,128.35 176.21,65.51 176.21,65.51 C173.55,63.58 172.97,59.87 174.89,57.22 C176.82,54.57 180.53,53.98 183.19,55.91 C183.19,55.91 269.68,118.74 269.68,118.74 C272.33,120.67 272.92,124.38 270.99,127.04 C269.06,129.69 265.35,130.27 262.7,128.35z "/></g></g><g id="time_group"/></svg>